<svg xmlns="http://www.w3.org/2000/svg" xmlns:xlink="http://www.w3.org/1999/xlink" width="69" zoomAndPan="magnify" viewBox="0 0 51.75 33.749998" height="45" preserveAspectRatio="xMidYMid meet" version="1.0"><defs><g/><clipPath id="cac649a84e"><path d="M 0.0664062 16 L 6 16 L 6 22 L 0.0664062 22 Z M 0.0664062 16 " clip-rule="nonzero"/></clipPath><clipPath id="ba891d81b7"><path d="M 0.0664062 9 L 2 9 L 2 13 L 0.0664062 13 Z M 0.0664062 9 " clip-rule="nonzero"/></clipPath><clipPath id="16204afae9"><path d="M 27.390625 9.199219 L 32.601562 9.199219 L 32.601562 14.410156 L 27.390625 14.410156 Z M 27.390625 9.199219 " clip-rule="nonzero"/></clipPath><clipPath id="50fb41476a"><path d="M 27.390625 9.199219 L 31 9.199219 L 31 14.410156 L 27.390625 14.410156 Z M 27.390625 9.199219 " clip-rule="nonzero"/></clipPath><clipPath id="4aedfd6b54"><path d="M 28 9.199219 L 32 9.199219 L 32 14 L 28 14 Z M 28 9.199219 " clip-rule="nonzero"/></clipPath><clipPath id="42911e7438"><path d="M 28 9.199219 L 31 9.199219 L 31 14 L 28 14 Z M 28 9.199219 " clip-rule="nonzero"/></clipPath></defs><g clip-path="url(#cac649a84e)"><g fill="#FFFFFF" fill-opacity="1"><g transform="translate(0.066178, 21.747948)"><g><path d="M 3.234375 -5.5625 L 5.484375 0 L 4.125 0 L 3.703125 -1.109375 L 1.59375 -1.109375 L 1.171875 0 L -0.1875 0 L 2.0625 -5.5625 Z M 3.28125 -2.234375 L 2.65625 -3.84375 L 2.640625 -3.84375 L 2.015625 -2.234375 Z M 3.28125 -2.234375 "/></g></g></g></g><g fill="#FFFFFF" fill-opacity="1"><g transform="translate(6.028695, 21.747948)"><g><path d="M 1.671875 -5.5625 L 1.671875 -1.109375 L 3.59375 -1.109375 L 3.59375 0 L 0.40625 0 L 0.40625 -5.5625 Z M 1.671875 -5.5625 "/></g></g></g><g fill="#FFFFFF" fill-opacity="1"><g transform="translate(10.514073, 21.747948)"><g><path d="M 5.4375 -3.125 L 5.4375 -1.90625 C 5.289062 -1.25 4.972656 -0.75 4.484375 -0.40625 C 4.003906 -0.0703125 3.46875 0.09375 2.875 0.09375 C 2.113281 0.09375 1.46875 -0.1875 0.9375 -0.75 C 0.414062 -1.3125 0.15625 -1.988281 0.15625 -2.78125 C 0.15625 -3.59375 0.410156 -4.273438 0.921875 -4.828125 C 1.441406 -5.390625 2.09375 -5.671875 2.875 -5.671875 C 3.769531 -5.671875 4.484375 -5.351562 5.015625 -4.71875 L 4.1875 -3.8125 C 3.882812 -4.28125 3.46875 -4.515625 2.9375 -4.515625 C 2.550781 -4.515625 2.21875 -4.34375 1.9375 -4 C 1.664062 -3.664062 1.53125 -3.257812 1.53125 -2.78125 C 1.53125 -2.3125 1.664062 -1.90625 1.9375 -1.5625 C 2.21875 -1.226562 2.550781 -1.0625 2.9375 -1.0625 C 3.257812 -1.0625 3.539062 -1.160156 3.78125 -1.359375 C 4.03125 -1.554688 4.15625 -1.816406 4.15625 -2.140625 L 2.875 -2.140625 L 2.875 -3.125 Z M 5.4375 -3.125 "/></g></g></g><g fill="#FFFFFF" fill-opacity="1"><g transform="translate(16.78011, 21.747948)"><g><path d="M 0.15625 -2.78125 C 0.15625 -3.59375 0.425781 -4.273438 0.96875 -4.828125 C 1.519531 -5.390625 2.1875 -5.671875 2.96875 -5.671875 C 3.738281 -5.671875 4.394531 -5.390625 4.9375 -4.828125 C 5.488281 -4.273438 5.765625 -3.59375 5.765625 -2.78125 C 5.765625 -1.96875 5.492188 -1.285156 4.953125 -0.734375 C 4.421875 -0.179688 3.757812 0.09375 2.96875 0.09375 C 2.144531 0.09375 1.46875 -0.175781 0.9375 -0.71875 C 0.414062 -1.269531 0.15625 -1.957031 0.15625 -2.78125 Z M 1.53125 -2.78125 C 1.53125 -2.488281 1.570312 -2.222656 1.65625 -1.984375 C 1.75 -1.742188 1.90625 -1.539062 2.125 -1.375 C 2.351562 -1.207031 2.632812 -1.125 2.96875 -1.125 C 3.4375 -1.125 3.789062 -1.285156 4.03125 -1.609375 C 4.269531 -1.929688 4.390625 -2.320312 4.390625 -2.78125 C 4.390625 -3.238281 4.265625 -3.628906 4.015625 -3.953125 C 3.773438 -4.285156 3.425781 -4.453125 2.96875 -4.453125 C 2.507812 -4.453125 2.15625 -4.285156 1.90625 -3.953125 C 1.65625 -3.628906 1.53125 -3.238281 1.53125 -2.78125 Z M 1.53125 -2.78125 "/></g></g></g><g fill="#FFFFFF" fill-opacity="1"><g transform="translate(23.369905, 21.747948)"><g><path d="M 0.40625 -5.5625 L 2.390625 -5.5625 C 2.929688 -5.5625 3.367188 -5.421875 3.703125 -5.140625 C 4.046875 -4.859375 4.21875 -4.453125 4.21875 -3.921875 C 4.21875 -3.503906 4.113281 -3.15625 3.90625 -2.875 C 3.695312 -2.601562 3.421875 -2.410156 3.078125 -2.296875 L 4.984375 0 L 3.375 0 L 1.671875 -2.203125 L 1.671875 0 L 0.40625 0 Z M 1.671875 -3.09375 L 1.828125 -3.09375 C 1.941406 -3.09375 2.035156 -3.09375 2.109375 -3.09375 C 2.191406 -3.101562 2.285156 -3.117188 2.390625 -3.140625 C 2.492188 -3.171875 2.578125 -3.210938 2.640625 -3.265625 C 2.703125 -3.316406 2.753906 -3.390625 2.796875 -3.484375 C 2.847656 -3.578125 2.875 -3.691406 2.875 -3.828125 C 2.875 -3.960938 2.847656 -4.078125 2.796875 -4.171875 C 2.753906 -4.265625 2.703125 -4.335938 2.640625 -4.390625 C 2.578125 -4.441406 2.492188 -4.476562 2.390625 -4.5 C 2.285156 -4.53125 2.191406 -4.546875 2.109375 -4.546875 C 2.035156 -4.554688 1.941406 -4.5625 1.828125 -4.5625 L 1.671875 -4.5625 Z M 1.671875 -3.09375 "/></g></g></g><g fill="#FFFFFF" fill-opacity="1"><g transform="translate(28.873768, 21.747948)"><g><path d="M 1.671875 -5.5625 L 1.671875 0 L 0.40625 0 L 0.40625 -5.5625 Z M 1.671875 -5.5625 "/></g></g></g><g fill="#FFFFFF" fill-opacity="1"><g transform="translate(31.625698, 21.747948)"><g><path d="M 0.046875 -4.453125 L 0.046875 -5.5625 L 3.96875 -5.5625 L 3.96875 -4.453125 L 2.640625 -4.453125 L 2.640625 0 L 1.375 0 L 1.375 -4.453125 Z M 0.046875 -4.453125 "/></g></g></g><g fill="#FFFFFF" fill-opacity="1"><g transform="translate(36.32017, 21.747948)"><g><path d="M 1.671875 -2.234375 L 1.671875 0 L 0.40625 0 L 0.40625 -5.5625 L 1.671875 -5.5625 L 1.671875 -3.34375 L 3.46875 -3.34375 L 3.46875 -5.5625 L 4.734375 -5.5625 L 4.734375 0 L 3.46875 0 L 3.46875 -2.234375 Z M 1.671875 -2.234375 "/></g></g></g><g fill="#FFFFFF" fill-opacity="1"><g transform="translate(42.134296, 21.747948)"><g><path d="M 5.015625 0 L 4.75 -3.296875 L 4.71875 -3.296875 L 3.578125 -0.03125 L 2.8125 -0.03125 L 1.671875 -3.296875 L 1.640625 -3.296875 L 1.375 0 L 0.109375 0 L 0.609375 -5.5625 L 1.953125 -5.5625 L 3.1875 -2.359375 L 4.421875 -5.5625 L 5.78125 -5.5625 L 6.28125 0 Z M 5.015625 0 "/></g></g></g><g clip-path="url(#ba891d81b7)"><g fill="#FFFFFF" fill-opacity="1"><g transform="translate(0.066178, 12.634134)"><g><path d="M 1.3125 -2.65625 L 1.859375 -2.65625 L 1.859375 -0.8125 C 1.859375 -0.644531 1.816406 -0.492188 1.734375 -0.359375 C 1.660156 -0.234375 1.554688 -0.132812 1.421875 -0.0625 C 1.285156 0 1.132812 0.03125 0.96875 0.03125 C 0.6875 0.03125 0.46875 -0.0351562 0.3125 -0.171875 C 0.15625 -0.316406 0.078125 -0.519531 0.078125 -0.78125 L 0.625 -0.78125 C 0.625 -0.65625 0.648438 -0.5625 0.703125 -0.5 C 0.753906 -0.4375 0.84375 -0.40625 0.96875 -0.40625 C 1.070312 -0.40625 1.15625 -0.441406 1.21875 -0.515625 C 1.28125 -0.585938 1.3125 -0.6875 1.3125 -0.8125 Z M 1.3125 -2.65625 "/></g></g></g></g><g fill="#FFFFFF" fill-opacity="1"><g transform="translate(2.526453, 12.634134)"><g><path d="M 1.734375 -0.546875 L 0.78125 -0.546875 L 0.59375 0 L 0.015625 0 L 1 -2.65625 L 1.515625 -2.65625 L 2.5 0 L 1.921875 0 Z M 0.921875 -0.984375 L 1.59375 -0.984375 L 1.25 -1.984375 Z M 0.921875 -0.984375 "/></g></g></g><g fill="#FFFFFF" fill-opacity="1"><g transform="translate(5.413556, 12.634134)"><g><path d="M 1.21875 -0.65625 L 1.8125 -2.65625 L 2.421875 -2.65625 L 1.5 0 L 0.9375 0 L 0.015625 -2.65625 L 0.625 -2.65625 Z M 1.21875 -0.65625 "/></g></g></g><g fill="#FFFFFF" fill-opacity="1"><g transform="translate(8.229521, 12.634134)"><g><path d="M 1.734375 -0.546875 L 0.78125 -0.546875 L 0.59375 0 L 0.015625 0 L 1 -2.65625 L 1.515625 -2.65625 L 2.5 0 L 1.921875 0 Z M 0.921875 -0.984375 L 1.59375 -0.984375 L 1.25 -1.984375 Z M 0.921875 -0.984375 "/></g></g></g><g fill="#FFFFFF" fill-opacity="1"><g transform="translate(11.116624, 12.634134)"><g><path d="M 1.609375 -0.703125 C 1.609375 -0.796875 1.570312 -0.867188 1.5 -0.921875 C 1.425781 -0.984375 1.296875 -1.046875 1.109375 -1.109375 C 0.921875 -1.171875 0.769531 -1.234375 0.65625 -1.296875 C 0.351562 -1.453125 0.203125 -1.671875 0.203125 -1.953125 C 0.203125 -2.097656 0.242188 -2.222656 0.328125 -2.328125 C 0.410156 -2.441406 0.523438 -2.53125 0.671875 -2.59375 C 0.828125 -2.65625 1 -2.6875 1.1875 -2.6875 C 1.375 -2.6875 1.539062 -2.648438 1.6875 -2.578125 C 1.84375 -2.515625 1.957031 -2.421875 2.03125 -2.296875 C 2.113281 -2.171875 2.15625 -2.03125 2.15625 -1.875 L 1.609375 -1.875 C 1.609375 -1.988281 1.570312 -2.078125 1.5 -2.140625 C 1.425781 -2.210938 1.316406 -2.25 1.171875 -2.25 C 1.046875 -2.25 0.941406 -2.222656 0.859375 -2.171875 C 0.785156 -2.117188 0.75 -2.046875 0.75 -1.953125 C 0.75 -1.859375 0.789062 -1.78125 0.875 -1.71875 C 0.96875 -1.664062 1.097656 -1.613281 1.265625 -1.5625 C 1.578125 -1.46875 1.800781 -1.351562 1.9375 -1.21875 C 2.082031 -1.082031 2.15625 -0.910156 2.15625 -0.703125 C 2.15625 -0.472656 2.066406 -0.289062 1.890625 -0.15625 C 1.722656 -0.03125 1.492188 0.03125 1.203125 0.03125 C 0.992188 0.03125 0.804688 -0.00390625 0.640625 -0.078125 C 0.472656 -0.148438 0.34375 -0.25 0.25 -0.375 C 0.164062 -0.507812 0.125 -0.660156 0.125 -0.828125 L 0.671875 -0.828125 C 0.671875 -0.535156 0.847656 -0.390625 1.203125 -0.390625 C 1.328125 -0.390625 1.425781 -0.414062 1.5 -0.46875 C 1.570312 -0.519531 1.609375 -0.597656 1.609375 -0.703125 Z M 1.609375 -0.703125 "/></g></g></g><g fill="#FFFFFF" fill-opacity="1"><g transform="translate(13.786664, 12.634134)"><g><path d="M 2.328125 -0.890625 C 2.304688 -0.597656 2.195312 -0.367188 2 -0.203125 C 1.8125 -0.046875 1.5625 0.03125 1.25 0.03125 C 0.90625 0.03125 0.632812 -0.0820312 0.4375 -0.3125 C 0.25 -0.539062 0.15625 -0.851562 0.15625 -1.25 L 0.15625 -1.40625 C 0.15625 -1.664062 0.195312 -1.890625 0.28125 -2.078125 C 0.375 -2.273438 0.503906 -2.425781 0.671875 -2.53125 C 0.835938 -2.632812 1.035156 -2.6875 1.265625 -2.6875 C 1.566406 -2.6875 1.8125 -2.601562 2 -2.4375 C 2.1875 -2.28125 2.296875 -2.050781 2.328125 -1.75 L 1.78125 -1.75 C 1.757812 -1.925781 1.707031 -2.050781 1.625 -2.125 C 1.550781 -2.207031 1.429688 -2.25 1.265625 -2.25 C 1.078125 -2.25 0.9375 -2.179688 0.84375 -2.046875 C 0.757812 -1.910156 0.71875 -1.707031 0.71875 -1.4375 L 0.71875 -1.234375 C 0.71875 -0.953125 0.757812 -0.742188 0.84375 -0.609375 C 0.925781 -0.472656 1.0625 -0.40625 1.25 -0.40625 C 1.414062 -0.40625 1.539062 -0.441406 1.625 -0.515625 C 1.707031 -0.597656 1.757812 -0.722656 1.78125 -0.890625 Z M 2.328125 -0.890625 "/></g></g></g><g fill="#FFFFFF" fill-opacity="1"><g transform="translate(16.604454, 12.634134)"><g><path d="M 1.21875 -0.96875 L 0.78125 -0.96875 L 0.78125 0 L 0.234375 0 L 0.234375 -2.65625 L 1.21875 -2.65625 C 1.53125 -2.65625 1.769531 -2.582031 1.9375 -2.4375 C 2.113281 -2.300781 2.203125 -2.109375 2.203125 -1.859375 C 2.203125 -1.671875 2.160156 -1.515625 2.078125 -1.390625 C 2.003906 -1.273438 1.890625 -1.179688 1.734375 -1.109375 L 2.3125 -0.03125 L 2.3125 0 L 1.71875 0 Z M 0.78125 -1.421875 L 1.21875 -1.421875 C 1.363281 -1.421875 1.472656 -1.453125 1.546875 -1.515625 C 1.617188 -1.585938 1.65625 -1.6875 1.65625 -1.8125 C 1.65625 -1.9375 1.617188 -2.035156 1.546875 -2.109375 C 1.472656 -2.179688 1.363281 -2.21875 1.21875 -2.21875 L 0.78125 -2.21875 Z M 0.78125 -1.421875 "/></g></g></g><g fill="#FFFFFF" fill-opacity="1"><g transform="translate(19.36205, 12.634134)"><g><path d="M 0.8125 0 L 0.265625 0 L 0.265625 -2.65625 L 0.8125 -2.65625 Z M 0.8125 0 "/></g></g></g><g fill="#FFFFFF" fill-opacity="1"><g transform="translate(20.824572, 12.634134)"><g><path d="M 0.78125 -0.9375 L 0.78125 0 L 0.234375 0 L 0.234375 -2.65625 L 1.265625 -2.65625 C 1.472656 -2.65625 1.648438 -2.617188 1.796875 -2.546875 C 1.953125 -2.472656 2.066406 -2.367188 2.140625 -2.234375 C 2.222656 -2.097656 2.265625 -1.945312 2.265625 -1.78125 C 2.265625 -1.519531 2.175781 -1.3125 2 -1.15625 C 1.820312 -1.007812 1.578125 -0.9375 1.265625 -0.9375 Z M 0.78125 -1.375 L 1.265625 -1.375 C 1.410156 -1.375 1.519531 -1.40625 1.59375 -1.46875 C 1.675781 -1.539062 1.71875 -1.640625 1.71875 -1.765625 C 1.71875 -1.898438 1.675781 -2.003906 1.59375 -2.078125 C 1.519531 -2.160156 1.414062 -2.207031 1.28125 -2.21875 L 0.78125 -2.21875 Z M 0.78125 -1.375 "/></g></g></g><g fill="#FFFFFF" fill-opacity="1"><g transform="translate(23.607704, 12.634134)"><g><path d="M 2.234375 -2.21875 L 1.421875 -2.21875 L 1.421875 0 L 0.875 0 L 0.875 -2.21875 L 0.078125 -2.21875 L 0.078125 -2.65625 L 2.234375 -2.65625 Z M 2.234375 -2.21875 "/></g></g></g><g fill="#FFFFFF" fill-opacity="1"><g transform="translate(19.027286, 25.256429)"><g><path d="M 1.34375 0 L 1.046875 0 L 1.046875 -0.609375 L 0.484375 -0.609375 L 0.484375 0 L 0.171875 0 L 0.171875 -1.421875 L 0.484375 -1.421875 L 0.484375 -0.859375 L 1.046875 -0.859375 L 1.046875 -1.421875 L 1.34375 -1.421875 Z M 1.34375 0 "/></g></g></g><g fill="#FFFFFF" fill-opacity="1"><g transform="translate(20.540374, 25.256429)"><g><path d="M 1.046875 0 L 0.9375 -0.34375 L 0.421875 -0.34375 L 0.328125 0 L 0 0 L 0.5 -1.421875 L 0.875 -1.421875 L 1.375 0 Z M 0.875 -0.59375 C 0.78125 -0.894531 0.722656 -1.066406 0.703125 -1.109375 C 0.691406 -1.148438 0.6875 -1.179688 0.6875 -1.203125 C 0.664062 -1.117188 0.601562 -0.914062 0.5 -0.59375 Z M 0.875 -0.59375 "/></g></g></g><g fill="#FFFFFF" fill-opacity="1"><g transform="translate(21.90476, 25.256429)"><g><path d="M 0.484375 -0.78125 L 0.578125 -0.78125 C 0.671875 -0.78125 0.738281 -0.796875 0.78125 -0.828125 C 0.832031 -0.859375 0.859375 -0.910156 0.859375 -0.984375 C 0.859375 -1.046875 0.832031 -1.09375 0.78125 -1.125 C 0.738281 -1.15625 0.664062 -1.171875 0.5625 -1.171875 L 0.484375 -1.171875 Z M 0.484375 -0.546875 L 0.484375 0 L 0.171875 0 L 0.171875 -1.421875 L 0.59375 -1.421875 C 0.78125 -1.421875 0.921875 -1.382812 1.015625 -1.3125 C 1.109375 -1.238281 1.15625 -1.132812 1.15625 -1 C 1.15625 -0.914062 1.128906 -0.835938 1.078125 -0.765625 C 1.035156 -0.703125 0.972656 -0.65625 0.890625 -0.625 C 1.109375 -0.300781 1.25 -0.09375 1.3125 0 L 0.984375 0 L 0.640625 -0.546875 Z M 0.484375 -0.546875 "/></g></g></g><g fill="#FFFFFF" fill-opacity="1"><g transform="translate(23.210244, 25.256429)"><g><path d="M 1.359375 -0.71875 C 1.359375 -0.488281 1.289062 -0.3125 1.15625 -0.1875 C 1.019531 -0.0625 0.828125 0 0.578125 0 L 0.171875 0 L 0.171875 -1.421875 L 0.625 -1.421875 C 0.851562 -1.421875 1.03125 -1.359375 1.15625 -1.234375 C 1.289062 -1.109375 1.359375 -0.9375 1.359375 -0.71875 Z M 1.046875 -0.71875 C 1.046875 -1.019531 0.910156 -1.171875 0.640625 -1.171875 L 0.484375 -1.171875 L 0.484375 -0.25 L 0.609375 -0.25 C 0.898438 -0.25 1.046875 -0.40625 1.046875 -0.71875 Z M 1.046875 -0.71875 "/></g></g></g><g fill="#FFFFFF" fill-opacity="1"><g transform="translate(24.674086, 25.256429)"><g><path d="M 0.78125 -1.1875 C 0.664062 -1.1875 0.578125 -1.144531 0.515625 -1.0625 C 0.453125 -0.976562 0.421875 -0.859375 0.421875 -0.703125 C 0.421875 -0.390625 0.539062 -0.234375 0.78125 -0.234375 C 0.875 -0.234375 0.992188 -0.257812 1.140625 -0.3125 L 1.140625 -0.046875 C 1.023438 -0.00390625 0.894531 0.015625 0.75 0.015625 C 0.539062 0.015625 0.378906 -0.046875 0.265625 -0.171875 C 0.160156 -0.296875 0.109375 -0.472656 0.109375 -0.703125 C 0.109375 -0.847656 0.132812 -0.976562 0.1875 -1.09375 C 0.25 -1.207031 0.328125 -1.289062 0.421875 -1.34375 C 0.523438 -1.40625 0.644531 -1.4375 0.78125 -1.4375 C 0.914062 -1.4375 1.050781 -1.40625 1.1875 -1.34375 L 1.09375 -1.09375 C 1.039062 -1.113281 0.988281 -1.132812 0.9375 -1.15625 C 0.882812 -1.175781 0.832031 -1.1875 0.78125 -1.1875 Z M 0.78125 -1.1875 "/></g></g></g><g fill="#FFFFFF" fill-opacity="1"><g transform="translate(25.934188, 25.256429)"><g><path d="M 1.46875 -0.703125 C 1.46875 -0.472656 1.40625 -0.296875 1.28125 -0.171875 C 1.164062 -0.046875 1.003906 0.015625 0.796875 0.015625 C 0.578125 0.015625 0.40625 -0.046875 0.28125 -0.171875 C 0.164062 -0.296875 0.109375 -0.476562 0.109375 -0.71875 C 0.109375 -0.945312 0.164062 -1.125 0.28125 -1.25 C 0.40625 -1.375 0.578125 -1.4375 0.796875 -1.4375 C 1.015625 -1.4375 1.179688 -1.375 1.296875 -1.25 C 1.410156 -1.125 1.46875 -0.941406 1.46875 -0.703125 Z M 0.4375 -0.703125 C 0.4375 -0.546875 0.460938 -0.425781 0.515625 -0.34375 C 0.578125 -0.269531 0.671875 -0.234375 0.796875 -0.234375 C 1.035156 -0.234375 1.15625 -0.390625 1.15625 -0.703125 C 1.15625 -1.023438 1.035156 -1.1875 0.796875 -1.1875 C 0.671875 -1.1875 0.578125 -1.144531 0.515625 -1.0625 C 0.460938 -0.988281 0.4375 -0.867188 0.4375 -0.703125 Z M 0.4375 -0.703125 "/></g></g></g><g fill="#FFFFFF" fill-opacity="1"><g transform="translate(27.508108, 25.256429)"><g><path d="M 1.359375 -0.71875 C 1.359375 -0.488281 1.289062 -0.3125 1.15625 -0.1875 C 1.019531 -0.0625 0.828125 0 0.578125 0 L 0.171875 0 L 0.171875 -1.421875 L 0.625 -1.421875 C 0.851562 -1.421875 1.03125 -1.359375 1.15625 -1.234375 C 1.289062 -1.109375 1.359375 -0.9375 1.359375 -0.71875 Z M 1.046875 -0.71875 C 1.046875 -1.019531 0.910156 -1.171875 0.640625 -1.171875 L 0.484375 -1.171875 L 0.484375 -0.25 L 0.609375 -0.25 C 0.898438 -0.25 1.046875 -0.40625 1.046875 -0.71875 Z M 1.046875 -0.71875 "/></g></g></g><g fill="#FFFFFF" fill-opacity="1"><g transform="translate(28.97195, 25.256429)"><g><path d="M 1 0 L 0.171875 0 L 0.171875 -1.421875 L 1 -1.421875 L 1 -1.171875 L 0.484375 -1.171875 L 0.484375 -0.859375 L 0.953125 -0.859375 L 0.953125 -0.609375 L 0.484375 -0.609375 L 0.484375 -0.25 L 1 -0.25 Z M 1 0 "/></g></g></g><g fill="#FFFFFF" fill-opacity="1"><g transform="translate(30.079488, 25.256429)"><g><path d="M 0.484375 -0.78125 L 0.578125 -0.78125 C 0.671875 -0.78125 0.738281 -0.796875 0.78125 -0.828125 C 0.832031 -0.859375 0.859375 -0.910156 0.859375 -0.984375 C 0.859375 -1.046875 0.832031 -1.09375 0.78125 -1.125 C 0.738281 -1.15625 0.664062 -1.171875 0.5625 -1.171875 L 0.484375 -1.171875 Z M 0.484375 -0.546875 L 0.484375 0 L 0.171875 0 L 0.171875 -1.421875 L 0.59375 -1.421875 C 0.78125 -1.421875 0.921875 -1.382812 1.015625 -1.3125 C 1.109375 -1.238281 1.15625 -1.132812 1.15625 -1 C 1.15625 -0.914062 1.128906 -0.835938 1.078125 -0.765625 C 1.035156 -0.703125 0.972656 -0.65625 0.890625 -0.625 C 1.109375 -0.300781 1.25 -0.09375 1.3125 0 L 0.984375 0 L 0.640625 -0.546875 Z M 0.484375 -0.546875 "/></g></g></g><g fill="#FFFFFF" fill-opacity="1"><g transform="translate(31.384973, 25.256429)"><g><path d="M 1.015625 -0.390625 C 1.015625 -0.265625 0.96875 -0.164062 0.875 -0.09375 C 0.78125 -0.0195312 0.65625 0.015625 0.5 0.015625 C 0.34375 0.015625 0.207031 -0.0078125 0.09375 -0.0625 L 0.09375 -0.34375 C 0.1875 -0.300781 0.265625 -0.269531 0.328125 -0.25 C 0.398438 -0.238281 0.460938 -0.234375 0.515625 -0.234375 C 0.578125 -0.234375 0.625 -0.242188 0.65625 -0.265625 C 0.695312 -0.285156 0.71875 -0.320312 0.71875 -0.375 C 0.71875 -0.40625 0.707031 -0.429688 0.6875 -0.453125 C 0.675781 -0.472656 0.65625 -0.492188 0.625 -0.515625 C 0.59375 -0.535156 0.53125 -0.566406 0.4375 -0.609375 C 0.351562 -0.648438 0.289062 -0.6875 0.25 -0.71875 C 0.207031 -0.757812 0.171875 -0.804688 0.140625 -0.859375 C 0.117188 -0.910156 0.109375 -0.96875 0.109375 -1.03125 C 0.109375 -1.15625 0.148438 -1.253906 0.234375 -1.328125 C 0.316406 -1.398438 0.4375 -1.4375 0.59375 -1.4375 C 0.664062 -1.4375 0.734375 -1.425781 0.796875 -1.40625 C 0.859375 -1.394531 0.925781 -1.375 1 -1.34375 L 0.90625 -1.109375 C 0.832031 -1.140625 0.769531 -1.160156 0.71875 -1.171875 C 0.675781 -1.179688 0.628906 -1.1875 0.578125 -1.1875 C 0.523438 -1.1875 0.484375 -1.171875 0.453125 -1.140625 C 0.421875 -1.117188 0.40625 -1.085938 0.40625 -1.046875 C 0.40625 -1.015625 0.410156 -0.988281 0.421875 -0.96875 C 0.429688 -0.945312 0.445312 -0.925781 0.46875 -0.90625 C 0.5 -0.894531 0.566406 -0.863281 0.671875 -0.8125 C 0.804688 -0.75 0.894531 -0.6875 0.9375 -0.625 C 0.988281 -0.5625 1.015625 -0.484375 1.015625 -0.390625 Z M 1.015625 -0.390625 "/></g></g></g><g clip-path="url(#16204afae9)"><path fill="#ffc44d" d="M 27.582031 9.1875 C 27.53125 9.1875 27.480469 9.210938 27.445312 9.25 C 27.410156 9.289062 27.394531 9.339844 27.402344 9.390625 L 27.886719 13.269531 C 27.894531 13.332031 27.933594 13.382812 27.984375 13.410156 L 29.925781 14.378906 C 29.976562 14.40625 30.035156 14.40625 30.089844 14.378906 L 32.027344 13.410156 C 32.082031 13.382812 32.117188 13.332031 32.125 13.269531 L 32.609375 9.390625 C 32.617188 9.339844 32.601562 9.289062 32.566406 9.25 C 32.53125 9.210938 32.484375 9.1875 32.429688 9.1875 Z M 27.582031 9.1875 " fill-opacity="1" fill-rule="nonzero"/></g><g clip-path="url(#50fb41476a)"><path fill="#e5b045" d="M 30.007812 9.1875 L 30.007812 14.398438 C 29.980469 14.398438 29.949219 14.390625 29.925781 14.378906 L 27.984375 13.410156 C 27.933594 13.382812 27.894531 13.332031 27.886719 13.269531 L 27.402344 9.390625 C 27.394531 9.339844 27.410156 9.289062 27.445312 9.25 C 27.480469 9.210938 27.53125 9.1875 27.582031 9.1875 Z M 30.007812 9.1875 " fill-opacity="1" fill-rule="evenodd"/></g><g clip-path="url(#4aedfd6b54)"><path fill="#eceff1" d="M 28.417969 9.972656 C 28.453125 9.9375 28.5 9.914062 28.550781 9.914062 L 31.460938 9.914062 C 31.5625 9.914062 31.644531 9.996094 31.644531 10.097656 C 31.644531 10.195312 31.5625 10.277344 31.460938 10.277344 L 28.75 10.277344 L 28.839844 11.246094 L 31.460938 11.246094 C 31.515625 11.246094 31.566406 11.273438 31.601562 11.3125 C 31.636719 11.355469 31.648438 11.410156 31.640625 11.460938 L 31.398438 12.796875 C 31.386719 12.847656 31.355469 12.890625 31.3125 12.917969 L 30.101562 13.644531 C 30.042969 13.679688 29.96875 13.679688 29.914062 13.644531 L 28.699219 12.917969 C 28.652344 12.886719 28.617188 12.835938 28.613281 12.777344 L 28.371094 10.113281 C 28.367188 10.0625 28.382812 10.011719 28.417969 9.972656 Z M 28.871094 11.609375 L 28.96875 12.652344 L 30.007812 13.277344 L 31.054688 12.648438 L 31.242188 11.609375 Z M 28.871094 11.609375 " fill-opacity="1" fill-rule="evenodd"/></g><g clip-path="url(#42911e7438)"><path fill="#cfd8dc" d="M 30.007812 10.277344 L 28.75 10.277344 L 28.839844 11.246094 L 30.007812 11.246094 L 30.007812 11.609375 L 28.871094 11.609375 L 28.96875 12.652344 L 30.007812 13.277344 L 30.007812 13.671875 C 29.972656 13.671875 29.941406 13.664062 29.914062 13.644531 L 28.699219 12.917969 C 28.652344 12.886719 28.617188 12.835938 28.613281 12.777344 L 28.371094 10.113281 C 28.367188 10.0625 28.382812 10.011719 28.417969 9.972656 C 28.453125 9.9375 28.5 9.914062 28.550781 9.914062 L 30.007812 9.914062 Z M 30.007812 10.277344 " fill-opacity="1" fill-rule="evenodd"/></g></svg>