<svg xmlns="http://www.w3.org/2000/svg" xmlns:xlink="http://www.w3.org/1999/xlink" width="69" zoomAndPan="magnify" viewBox="0 0 51.75 33.749998" height="45" preserveAspectRatio="xMidYMid meet" version="1.0"><defs><g/><clipPath id="26b3a40ef2"><path d="M 0.0664062 10 L 3 10 L 3 14 L 0.0664062 14 Z M 0.0664062 10 " clip-rule="nonzero"/></clipPath><clipPath id="6d7cfd2472"><path d="M 25.75 8.238281 L 32.453125 8.238281 L 32.453125 15.683594 L 25.75 15.683594 Z M 25.75 8.238281 " clip-rule="nonzero"/></clipPath><clipPath id="f017cd567d"><path d="M 29.101562 15.683594 C 28.730469 15.683594 28.394531 15.285156 28.144531 14.5625 C 27.910156 13.867188 27.777344 12.941406 27.777344 11.960938 C 27.777344 10.980469 27.910156 10.054688 28.144531 9.359375 C 28.394531 8.636719 28.730469 8.238281 29.101562 8.238281 C 29.46875 8.238281 29.808594 8.636719 30.054688 9.359375 C 30.292969 10.054688 30.425781 10.980469 30.425781 11.960938 C 30.425781 12.84375 30.316406 13.699219 30.117188 14.367188 C 30.105469 14.414062 30.058594 14.4375 30.015625 14.425781 C 29.972656 14.410156 29.945312 14.363281 29.960938 14.320312 C 30.152344 13.667969 30.257812 12.828125 30.257812 11.960938 C 30.257812 11 30.132812 10.09375 29.898438 9.414062 C 29.679688 8.773438 29.390625 8.40625 29.101562 8.40625 C 28.8125 8.40625 28.519531 8.773438 28.300781 9.414062 C 28.070312 10.09375 27.945312 11 27.945312 11.960938 C 27.945312 12.921875 28.070312 13.828125 28.300781 14.507812 C 28.519531 15.148438 28.8125 15.515625 29.101562 15.515625 C 29.320312 15.515625 29.5 15.304688 29.613281 15.128906 C 29.636719 15.089844 29.6875 15.078125 29.726562 15.105469 C 29.765625 15.128906 29.777344 15.183594 29.75 15.222656 C 29.558594 15.523438 29.332031 15.683594 29.101562 15.683594 Z M 26.769531 14.167969 C 26.355469 14.167969 26.066406 14.050781 25.9375 13.824219 C 25.753906 13.496094 25.921875 13 26.414062 12.417969 C 26.886719 11.863281 27.605469 11.285156 28.441406 10.792969 C 29.429688 10.210938 30.433594 9.835938 31.195312 9.765625 C 31.21875 9.761719 31.242188 9.769531 31.257812 9.789062 C 31.273438 9.804688 31.285156 9.824219 31.285156 9.847656 C 31.285156 9.894531 31.246094 9.933594 31.203125 9.933594 C 30.476562 10.003906 29.476562 10.378906 28.523438 10.941406 C 27.703125 11.421875 27 11.984375 26.539062 12.527344 C 26.101562 13.042969 25.9375 13.484375 26.082031 13.738281 C 26.226562 13.992188 26.683594 14.066406 27.335938 13.9375 C 28.03125 13.804688 28.863281 13.464844 29.679688 12.980469 C 30.5 12.5 31.203125 11.9375 31.664062 11.394531 C 32.101562 10.878906 32.265625 10.4375 32.121094 10.183594 C 32.097656 10.140625 32.0625 10.101562 32.019531 10.070312 C 31.984375 10.039062 31.976562 9.988281 32.003906 9.949219 C 32.03125 9.914062 32.082031 9.90625 32.121094 9.933594 C 32.179688 9.980469 32.230469 10.035156 32.265625 10.101562 C 32.449219 10.425781 32.28125 10.925781 31.789062 11.503906 C 31.316406 12.0625 30.597656 12.636719 29.761719 13.128906 C 28.929688 13.617188 28.078125 13.964844 27.367188 14.105469 C 27.148438 14.148438 26.949219 14.167969 26.769531 14.167969 Z M 31.433594 14.167969 C 31.253906 14.167969 31.054688 14.148438 30.835938 14.105469 C 30.125 13.964844 29.273438 13.617188 28.441406 13.128906 C 27.605469 12.636719 26.886719 12.0625 26.414062 11.503906 C 25.921875 10.925781 25.753906 10.425781 25.9375 10.101562 C 26.050781 9.898438 26.292969 9.78125 26.640625 9.757812 C 26.6875 9.753906 26.726562 9.789062 26.730469 9.835938 C 26.730469 9.882812 26.695312 9.921875 26.652344 9.925781 C 26.449219 9.9375 26.1875 9.992188 26.082031 10.183594 C 25.9375 10.4375 26.101562 10.878906 26.539062 11.394531 C 27 11.9375 27.703125 12.5 28.523438 12.980469 C 29.339844 13.464844 30.171875 13.804688 30.867188 13.9375 C 31.519531 14.066406 31.976562 13.992188 32.121094 13.738281 C 32.265625 13.484375 32.101562 13.042969 31.664062 12.527344 C 31.203125 11.984375 30.5 11.421875 29.679688 10.941406 C 28.9375 10.503906 28.167969 10.175781 27.511719 10.023438 C 27.46875 10.011719 27.441406 9.964844 27.449219 9.921875 C 27.460938 9.875 27.503906 9.847656 27.550781 9.859375 C 28.21875 10.015625 29.007812 10.347656 29.761719 10.792969 C 30.597656 11.285156 31.316406 11.863281 31.789062 12.417969 C 32.28125 12.996094 32.449219 13.496094 32.265625 13.820312 C 32.136719 14.050781 31.847656 14.167969 31.433594 14.167969 Z M 29.101562 12.5 C 28.808594 12.5 28.570312 12.257812 28.570312 11.960938 C 28.570312 11.664062 28.808594 11.421875 29.101562 11.421875 C 29.394531 11.421875 29.628906 11.664062 29.628906 11.960938 C 29.628906 12.257812 29.394531 12.5 29.101562 12.5 Z M 29.101562 11.589844 C 28.902344 11.589844 28.738281 11.757812 28.738281 11.960938 C 28.738281 12.164062 28.902344 12.332031 29.101562 12.332031 C 29.300781 12.332031 29.464844 12.164062 29.464844 11.960938 C 29.464844 11.757812 29.300781 11.589844 29.101562 11.589844 Z M 27.09375 10.398438 C 26.800781 10.398438 26.5625 10.15625 26.5625 9.859375 C 26.5625 9.5625 26.800781 9.320312 27.09375 9.320312 C 27.382812 9.320312 27.621094 9.5625 27.621094 9.859375 C 27.621094 10.15625 27.382812 10.398438 27.09375 10.398438 Z M 27.09375 9.488281 C 26.890625 9.488281 26.726562 9.65625 26.726562 9.859375 C 26.726562 10.0625 26.890625 10.230469 27.09375 10.230469 C 27.292969 10.230469 27.457031 10.0625 27.457031 9.859375 C 27.457031 9.65625 27.292969 9.488281 27.09375 9.488281 Z M 29.886719 15.3125 C 29.597656 15.3125 29.359375 15.070312 29.359375 14.773438 C 29.359375 14.476562 29.597656 14.234375 29.886719 14.234375 C 30.179688 14.234375 30.417969 14.476562 30.417969 14.773438 C 30.417969 15.070312 30.179688 15.3125 29.886719 15.3125 Z M 29.886719 14.402344 C 29.6875 14.402344 29.523438 14.566406 29.523438 14.773438 C 29.523438 14.976562 29.6875 15.144531 29.886719 15.144531 C 30.089844 15.144531 30.253906 14.976562 30.253906 14.773438 C 30.253906 14.566406 30.089844 14.402344 29.886719 14.402344 Z M 31.648438 10.390625 C 31.355469 10.390625 31.121094 10.148438 31.121094 9.851562 C 31.121094 9.554688 31.355469 9.3125 31.648438 9.3125 C 31.941406 9.3125 32.179688 9.554688 32.179688 9.851562 C 32.179688 10.148438 31.941406 10.390625 31.648438 10.390625 Z M 31.648438 9.480469 C 31.449219 9.480469 31.285156 9.644531 31.285156 9.851562 C 31.285156 10.054688 31.449219 10.222656 31.648438 10.222656 C 31.847656 10.222656 32.011719 10.054688 32.011719 9.851562 C 32.011719 9.644531 31.847656 9.480469 31.648438 9.480469 Z M 31.648438 9.480469 " clip-rule="nonzero"/></clipPath><linearGradient x1="39.776528" gradientTransform="matrix(0.0165326, 0, 0, 0.0168436, 25.029949, 7.805102)" y1="29.64353" x2="463.32658" gradientUnits="userSpaceOnUse" y2="453.193591" id="103a0ea367"><stop stop-opacity="1" stop-color="rgb(0%, 62.399292%, 100%)" offset="0"/><stop stop-opacity="1" stop-color="rgb(0%, 62.399292%, 100%)" offset="0.125"/><stop stop-opacity="1" stop-color="rgb(0%, 62.399292%, 100%)" offset="0.140625"/><stop stop-opacity="1" stop-color="rgb(0.422668%, 62.197876%, 99.674988%)" offset="0.144531"/><stop stop-opacity="1" stop-color="rgb(0.846863%, 61.99646%, 99.351501%)" offset="0.148438"/><stop stop-opacity="1" stop-color="rgb(1.351929%, 61.755371%, 98.96698%)" offset="0.152344"/><stop stop-opacity="1" stop-color="rgb(1.856995%, 61.515808%, 98.582458%)" offset="0.15625"/><stop stop-opacity="1" stop-color="rgb(2.360535%, 61.276245%, 98.196411%)" offset="0.160156"/><stop stop-opacity="1" stop-color="rgb(2.865601%, 61.036682%, 97.81189%)" offset="0.164063"/><stop stop-opacity="1" stop-color="rgb(3.369141%, 60.795593%, 97.425842%)" offset="0.167969"/><stop stop-opacity="1" stop-color="rgb(3.874207%, 60.55603%, 97.041321%)" offset="0.171875"/><stop stop-opacity="1" stop-color="rgb(4.377747%, 60.316467%, 96.656799%)" offset="0.175781"/><stop stop-opacity="1" stop-color="rgb(4.882812%, 60.076904%, 96.272278%)" offset="0.179688"/><stop stop-opacity="1" stop-color="rgb(5.386353%, 59.835815%, 95.88623%)" offset="0.183594"/><stop stop-opacity="1" stop-color="rgb(5.891418%, 59.596252%, 95.501709%)" offset="0.1875"/><stop stop-opacity="1" stop-color="rgb(6.394958%, 59.356689%, 95.117188%)" offset="0.191406"/><stop stop-opacity="1" stop-color="rgb(6.900024%, 59.117126%, 94.732666%)" offset="0.195312"/><stop stop-opacity="1" stop-color="rgb(7.403564%, 58.876038%, 94.346619%)" offset="0.199219"/><stop stop-opacity="1" stop-color="rgb(7.90863%, 58.636475%, 93.962097%)" offset="0.203125"/><stop stop-opacity="1" stop-color="rgb(8.41217%, 58.396912%, 93.57605%)" offset="0.207031"/><stop stop-opacity="1" stop-color="rgb(8.917236%, 58.157349%, 93.191528%)" offset="0.210938"/><stop stop-opacity="1" stop-color="rgb(9.422302%, 57.91626%, 92.807007%)" offset="0.214844"/><stop stop-opacity="1" stop-color="rgb(9.927368%, 57.676697%, 92.422485%)" offset="0.21875"/><stop stop-opacity="1" stop-color="rgb(10.430908%, 57.437134%, 92.036438%)" offset="0.222656"/><stop stop-opacity="1" stop-color="rgb(10.935974%, 57.197571%, 91.651917%)" offset="0.226562"/><stop stop-opacity="1" stop-color="rgb(11.439514%, 56.956482%, 91.267395%)" offset="0.230469"/><stop stop-opacity="1" stop-color="rgb(11.94458%, 56.716919%, 90.882874%)" offset="0.234375"/><stop stop-opacity="1" stop-color="rgb(12.44812%, 56.477356%, 90.496826%)" offset="0.238281"/><stop stop-opacity="1" stop-color="rgb(12.953186%, 56.237793%, 90.112305%)" offset="0.242188"/><stop stop-opacity="1" stop-color="rgb(13.456726%, 55.996704%, 89.726257%)" offset="0.246094"/><stop stop-opacity="1" stop-color="rgb(13.961792%, 55.757141%, 89.341736%)" offset="0.25"/><stop stop-opacity="1" stop-color="rgb(14.465332%, 55.517578%, 88.957214%)" offset="0.253906"/><stop stop-opacity="1" stop-color="rgb(14.970398%, 55.278015%, 88.572693%)" offset="0.257812"/><stop stop-opacity="1" stop-color="rgb(15.473938%, 55.036926%, 88.186646%)" offset="0.261719"/><stop stop-opacity="1" stop-color="rgb(15.979004%, 54.797363%, 87.802124%)" offset="0.265625"/><stop stop-opacity="1" stop-color="rgb(16.482544%, 54.5578%, 87.417603%)" offset="0.269531"/><stop stop-opacity="1" stop-color="rgb(16.98761%, 54.318237%, 87.033081%)" offset="0.273438"/><stop stop-opacity="1" stop-color="rgb(17.492676%, 54.077148%, 86.647034%)" offset="0.277344"/><stop stop-opacity="1" stop-color="rgb(17.997742%, 53.837585%, 86.262512%)" offset="0.28125"/><stop stop-opacity="1" stop-color="rgb(18.501282%, 53.598022%, 85.876465%)" offset="0.285156"/><stop stop-opacity="1" stop-color="rgb(19.006348%, 53.358459%, 85.491943%)" offset="0.289062"/><stop stop-opacity="1" stop-color="rgb(19.509888%, 53.117371%, 85.107422%)" offset="0.292969"/><stop stop-opacity="1" stop-color="rgb(20.014954%, 52.877808%, 84.7229%)" offset="0.296875"/><stop stop-opacity="1" stop-color="rgb(20.518494%, 52.638245%, 84.336853%)" offset="0.300781"/><stop stop-opacity="1" stop-color="rgb(21.02356%, 52.398682%, 83.952332%)" offset="0.304688"/><stop stop-opacity="1" stop-color="rgb(21.5271%, 52.157593%, 83.56781%)" offset="0.308594"/><stop stop-opacity="1" stop-color="rgb(22.032166%, 51.91803%, 83.183289%)" offset="0.3125"/><stop stop-opacity="1" stop-color="rgb(22.535706%, 51.678467%, 82.797241%)" offset="0.316406"/><stop stop-opacity="1" stop-color="rgb(23.040771%, 51.438904%, 82.41272%)" offset="0.320313"/><stop stop-opacity="1" stop-color="rgb(23.544312%, 51.197815%, 82.026672%)" offset="0.324219"/><stop stop-opacity="1" stop-color="rgb(24.049377%, 50.958252%, 81.642151%)" offset="0.328125"/><stop stop-opacity="1" stop-color="rgb(24.552917%, 50.718689%, 81.257629%)" offset="0.332031"/><stop stop-opacity="1" stop-color="rgb(25.057983%, 50.479126%, 80.873108%)" offset="0.335938"/><stop stop-opacity="1" stop-color="rgb(25.563049%, 50.238037%, 80.487061%)" offset="0.339844"/><stop stop-opacity="1" stop-color="rgb(26.068115%, 49.998474%, 80.102539%)" offset="0.34375"/><stop stop-opacity="1" stop-color="rgb(26.571655%, 49.758911%, 79.718018%)" offset="0.347656"/><stop stop-opacity="1" stop-color="rgb(27.076721%, 49.519348%, 79.333496%)" offset="0.351563"/><stop stop-opacity="1" stop-color="rgb(27.580261%, 49.278259%, 78.947449%)" offset="0.355469"/><stop stop-opacity="1" stop-color="rgb(28.085327%, 49.038696%, 78.562927%)" offset="0.359375"/><stop stop-opacity="1" stop-color="rgb(28.588867%, 48.799133%, 78.17688%)" offset="0.363281"/><stop stop-opacity="1" stop-color="rgb(29.093933%, 48.55957%, 77.792358%)" offset="0.367188"/><stop stop-opacity="1" stop-color="rgb(29.597473%, 48.320007%, 77.407837%)" offset="0.371094"/><stop stop-opacity="1" stop-color="rgb(30.102539%, 48.080444%, 77.023315%)" offset="0.375"/><stop stop-opacity="1" stop-color="rgb(30.606079%, 47.839355%, 76.637268%)" offset="0.378906"/><stop stop-opacity="1" stop-color="rgb(31.111145%, 47.599792%, 76.252747%)" offset="0.382813"/><stop stop-opacity="1" stop-color="rgb(31.614685%, 47.360229%, 75.868225%)" offset="0.386719"/><stop stop-opacity="1" stop-color="rgb(32.119751%, 47.120667%, 75.483704%)" offset="0.390625"/><stop stop-opacity="1" stop-color="rgb(32.624817%, 46.879578%, 75.097656%)" offset="0.394531"/><stop stop-opacity="1" stop-color="rgb(33.129883%, 46.640015%, 74.713135%)" offset="0.398438"/><stop stop-opacity="1" stop-color="rgb(33.633423%, 46.400452%, 74.327087%)" offset="0.402344"/><stop stop-opacity="1" stop-color="rgb(34.138489%, 46.160889%, 73.942566%)" offset="0.40625"/><stop stop-opacity="1" stop-color="rgb(34.642029%, 45.9198%, 73.558044%)" offset="0.410156"/><stop stop-opacity="1" stop-color="rgb(35.147095%, 45.680237%, 73.173523%)" offset="0.414063"/><stop stop-opacity="1" stop-color="rgb(35.650635%, 45.440674%, 72.787476%)" offset="0.417969"/><stop stop-opacity="1" stop-color="rgb(36.155701%, 45.201111%, 72.402954%)" offset="0.421875"/><stop stop-opacity="1" stop-color="rgb(36.659241%, 44.960022%, 72.018433%)" offset="0.425781"/><stop stop-opacity="1" stop-color="rgb(37.164307%, 44.720459%, 71.633911%)" offset="0.429688"/><stop stop-opacity="1" stop-color="rgb(37.667847%, 44.480896%, 71.247864%)" offset="0.433594"/><stop stop-opacity="1" stop-color="rgb(38.172913%, 44.241333%, 70.863342%)" offset="0.4375"/><stop stop-opacity="1" stop-color="rgb(38.676453%, 44.000244%, 70.477295%)" offset="0.441406"/><stop stop-opacity="1" stop-color="rgb(39.181519%, 43.760681%, 70.092773%)" offset="0.445312"/><stop stop-opacity="1" stop-color="rgb(39.685059%, 43.521118%, 69.708252%)" offset="0.449219"/><stop stop-opacity="1" stop-color="rgb(40.190125%, 43.281555%, 69.32373%)" offset="0.453125"/><stop stop-opacity="1" stop-color="rgb(40.69519%, 43.040466%, 68.937683%)" offset="0.457031"/><stop stop-opacity="1" stop-color="rgb(41.200256%, 42.800903%, 68.553162%)" offset="0.460938"/><stop stop-opacity="1" stop-color="rgb(41.703796%, 42.56134%, 68.16864%)" offset="0.464844"/><stop stop-opacity="1" stop-color="rgb(42.208862%, 42.321777%, 67.784119%)" offset="0.46875"/><stop stop-opacity="1" stop-color="rgb(42.712402%, 42.080688%, 67.398071%)" offset="0.472656"/><stop stop-opacity="1" stop-color="rgb(43.217468%, 41.841125%, 67.01355%)" offset="0.476563"/><stop stop-opacity="1" stop-color="rgb(43.721008%, 41.601562%, 66.627502%)" offset="0.480469"/><stop stop-opacity="1" stop-color="rgb(44.226074%, 41.362%, 66.242981%)" offset="0.484375"/><stop stop-opacity="1" stop-color="rgb(44.729614%, 41.120911%, 65.858459%)" offset="0.488281"/><stop stop-opacity="1" stop-color="rgb(45.23468%, 40.881348%, 65.473938%)" offset="0.492188"/><stop stop-opacity="1" stop-color="rgb(45.73822%, 40.641785%, 65.087891%)" offset="0.496094"/><stop stop-opacity="1" stop-color="rgb(46.243286%, 40.402222%, 64.703369%)" offset="0.5"/><stop stop-opacity="1" stop-color="rgb(46.746826%, 40.161133%, 64.318848%)" offset="0.503906"/><stop stop-opacity="1" stop-color="rgb(47.251892%, 39.92157%, 63.934326%)" offset="0.507812"/><stop stop-opacity="1" stop-color="rgb(47.755432%, 39.682007%, 63.548279%)" offset="0.511719"/><stop stop-opacity="1" stop-color="rgb(48.260498%, 39.442444%, 63.163757%)" offset="0.515625"/><stop stop-opacity="1" stop-color="rgb(48.765564%, 39.201355%, 62.77771%)" offset="0.519531"/><stop stop-opacity="1" stop-color="rgb(49.27063%, 38.961792%, 62.393188%)" offset="0.523438"/><stop stop-opacity="1" stop-color="rgb(49.77417%, 38.722229%, 62.008667%)" offset="0.527344"/><stop stop-opacity="1" stop-color="rgb(50.279236%, 38.482666%, 61.624146%)" offset="0.53125"/><stop stop-opacity="1" stop-color="rgb(50.782776%, 38.241577%, 61.238098%)" offset="0.535156"/><stop stop-opacity="1" stop-color="rgb(51.287842%, 38.002014%, 60.853577%)" offset="0.539062"/><stop stop-opacity="1" stop-color="rgb(51.791382%, 37.762451%, 60.467529%)" offset="0.542969"/><stop stop-opacity="1" stop-color="rgb(52.296448%, 37.522888%, 60.083008%)" offset="0.546875"/><stop stop-opacity="1" stop-color="rgb(52.799988%, 37.281799%, 59.698486%)" offset="0.550781"/><stop stop-opacity="1" stop-color="rgb(53.305054%, 37.042236%, 59.313965%)" offset="0.554688"/><stop stop-opacity="1" stop-color="rgb(53.808594%, 36.802673%, 58.927917%)" offset="0.558594"/><stop stop-opacity="1" stop-color="rgb(54.31366%, 36.56311%, 58.543396%)" offset="0.5625"/><stop stop-opacity="1" stop-color="rgb(54.8172%, 36.322021%, 58.158875%)" offset="0.566406"/><stop stop-opacity="1" stop-color="rgb(55.322266%, 36.082458%, 57.774353%)" offset="0.570312"/><stop stop-opacity="1" stop-color="rgb(55.827332%, 35.842896%, 57.388306%)" offset="0.574219"/><stop stop-opacity="1" stop-color="rgb(56.332397%, 35.603333%, 57.003784%)" offset="0.578125"/><stop stop-opacity="1" stop-color="rgb(56.835938%, 35.362244%, 56.617737%)" offset="0.582031"/><stop stop-opacity="1" stop-color="rgb(57.341003%, 35.122681%, 56.233215%)" offset="0.585938"/><stop stop-opacity="1" stop-color="rgb(57.844543%, 34.883118%, 55.848694%)" offset="0.589844"/><stop stop-opacity="1" stop-color="rgb(58.349609%, 34.643555%, 55.464172%)" offset="0.59375"/><stop stop-opacity="1" stop-color="rgb(58.853149%, 34.403992%, 55.078125%)" offset="0.597656"/><stop stop-opacity="1" stop-color="rgb(59.358215%, 34.164429%, 54.693604%)" offset="0.601562"/><stop stop-opacity="1" stop-color="rgb(59.861755%, 33.92334%, 54.309082%)" offset="0.605469"/><stop stop-opacity="1" stop-color="rgb(60.366821%, 33.683777%, 53.924561%)" offset="0.609375"/><stop stop-opacity="1" stop-color="rgb(60.870361%, 33.444214%, 53.538513%)" offset="0.613281"/><stop stop-opacity="1" stop-color="rgb(61.375427%, 33.204651%, 53.153992%)" offset="0.617188"/><stop stop-opacity="1" stop-color="rgb(61.878967%, 32.963562%, 52.767944%)" offset="0.621094"/><stop stop-opacity="1" stop-color="rgb(62.384033%, 32.723999%, 52.383423%)" offset="0.625"/><stop stop-opacity="1" stop-color="rgb(62.887573%, 32.484436%, 51.998901%)" offset="0.628906"/><stop stop-opacity="1" stop-color="rgb(63.392639%, 32.244873%, 51.61438%)" offset="0.632812"/><stop stop-opacity="1" stop-color="rgb(63.897705%, 32.003784%, 51.228333%)" offset="0.636719"/><stop stop-opacity="1" stop-color="rgb(64.402771%, 31.764221%, 50.843811%)" offset="0.640625"/><stop stop-opacity="1" stop-color="rgb(64.906311%, 31.524658%, 50.45929%)" offset="0.644531"/><stop stop-opacity="1" stop-color="rgb(65.411377%, 31.285095%, 50.074768%)" offset="0.648438"/><stop stop-opacity="1" stop-color="rgb(65.914917%, 31.044006%, 49.688721%)" offset="0.652344"/><stop stop-opacity="1" stop-color="rgb(66.419983%, 30.804443%, 49.304199%)" offset="0.65625"/><stop stop-opacity="1" stop-color="rgb(66.923523%, 30.56488%, 48.918152%)" offset="0.660156"/><stop stop-opacity="1" stop-color="rgb(67.428589%, 30.325317%, 48.53363%)" offset="0.664062"/><stop stop-opacity="1" stop-color="rgb(67.932129%, 30.084229%, 48.149109%)" offset="0.667969"/><stop stop-opacity="1" stop-color="rgb(68.437195%, 29.844666%, 47.764587%)" offset="0.671875"/><stop stop-opacity="1" stop-color="rgb(68.940735%, 29.605103%, 47.37854%)" offset="0.675781"/><stop stop-opacity="1" stop-color="rgb(69.445801%, 29.36554%, 46.994019%)" offset="0.679688"/><stop stop-opacity="1" stop-color="rgb(69.949341%, 29.124451%, 46.609497%)" offset="0.683594"/><stop stop-opacity="1" stop-color="rgb(70.454407%, 28.884888%, 46.224976%)" offset="0.6875"/><stop stop-opacity="1" stop-color="rgb(70.957947%, 28.645325%, 45.838928%)" offset="0.691406"/><stop stop-opacity="1" stop-color="rgb(71.463013%, 28.405762%, 45.454407%)" offset="0.695312"/><stop stop-opacity="1" stop-color="rgb(71.968079%, 28.164673%, 45.068359%)" offset="0.699219"/><stop stop-opacity="1" stop-color="rgb(72.473145%, 27.92511%, 44.683838%)" offset="0.703125"/><stop stop-opacity="1" stop-color="rgb(72.976685%, 27.685547%, 44.299316%)" offset="0.707031"/><stop stop-opacity="1" stop-color="rgb(73.48175%, 27.445984%, 43.914795%)" offset="0.710938"/><stop stop-opacity="1" stop-color="rgb(73.985291%, 27.204895%, 43.528748%)" offset="0.714844"/><stop stop-opacity="1" stop-color="rgb(74.490356%, 26.965332%, 43.144226%)" offset="0.71875"/><stop stop-opacity="1" stop-color="rgb(74.993896%, 26.725769%, 42.759705%)" offset="0.722656"/><stop stop-opacity="1" stop-color="rgb(75.498962%, 26.486206%, 42.375183%)" offset="0.726562"/><stop stop-opacity="1" stop-color="rgb(76.002502%, 26.245117%, 41.989136%)" offset="0.730469"/><stop stop-opacity="1" stop-color="rgb(76.507568%, 26.005554%, 41.604614%)" offset="0.734375"/><stop stop-opacity="1" stop-color="rgb(77.011108%, 25.765991%, 41.218567%)" offset="0.738281"/><stop stop-opacity="1" stop-color="rgb(77.516174%, 25.526428%, 40.834045%)" offset="0.742188"/><stop stop-opacity="1" stop-color="rgb(78.019714%, 25.285339%, 40.449524%)" offset="0.746094"/><stop stop-opacity="1" stop-color="rgb(78.52478%, 25.045776%, 40.065002%)" offset="0.75"/><stop stop-opacity="1" stop-color="rgb(79.02832%, 24.806213%, 39.678955%)" offset="0.753906"/><stop stop-opacity="1" stop-color="rgb(79.533386%, 24.56665%, 39.294434%)" offset="0.757812"/><stop stop-opacity="1" stop-color="rgb(80.038452%, 24.325562%, 38.909912%)" offset="0.761719"/><stop stop-opacity="1" stop-color="rgb(80.543518%, 24.085999%, 38.525391%)" offset="0.765625"/><stop stop-opacity="1" stop-color="rgb(81.047058%, 23.846436%, 38.139343%)" offset="0.769531"/><stop stop-opacity="1" stop-color="rgb(81.552124%, 23.606873%, 37.754822%)" offset="0.773438"/><stop stop-opacity="1" stop-color="rgb(82.055664%, 23.365784%, 37.368774%)" offset="0.777344"/><stop stop-opacity="1" stop-color="rgb(82.56073%, 23.126221%, 36.984253%)" offset="0.78125"/><stop stop-opacity="1" stop-color="rgb(83.06427%, 22.886658%, 36.599731%)" offset="0.785156"/><stop stop-opacity="1" stop-color="rgb(83.569336%, 22.647095%, 36.21521%)" offset="0.789062"/><stop stop-opacity="1" stop-color="rgb(84.072876%, 22.406006%, 35.829163%)" offset="0.792969"/><stop stop-opacity="1" stop-color="rgb(84.577942%, 22.166443%, 35.444641%)" offset="0.796875"/><stop stop-opacity="1" stop-color="rgb(85.081482%, 21.92688%, 35.06012%)" offset="0.800781"/><stop stop-opacity="1" stop-color="rgb(85.586548%, 21.687317%, 34.675598%)" offset="0.804688"/><stop stop-opacity="1" stop-color="rgb(86.090088%, 21.446228%, 34.289551%)" offset="0.808594"/><stop stop-opacity="1" stop-color="rgb(86.595154%, 21.206665%, 33.905029%)" offset="0.8125"/><stop stop-opacity="1" stop-color="rgb(87.10022%, 20.967102%, 33.518982%)" offset="0.816406"/><stop stop-opacity="1" stop-color="rgb(87.605286%, 20.727539%, 33.13446%)" offset="0.820312"/><stop stop-opacity="1" stop-color="rgb(88.108826%, 20.487976%, 32.749939%)" offset="0.824219"/><stop stop-opacity="1" stop-color="rgb(88.613892%, 20.248413%, 32.365417%)" offset="0.828125"/><stop stop-opacity="1" stop-color="rgb(89.117432%, 20.007324%, 31.97937%)" offset="0.832031"/><stop stop-opacity="1" stop-color="rgb(89.622498%, 19.767761%, 31.594849%)" offset="0.835938"/><stop stop-opacity="1" stop-color="rgb(90.126038%, 19.528198%, 31.210327%)" offset="0.839844"/><stop stop-opacity="1" stop-color="rgb(90.631104%, 19.288635%, 30.825806%)" offset="0.84375"/><stop stop-opacity="1" stop-color="rgb(91.134644%, 19.047546%, 30.439758%)" offset="0.847656"/><stop stop-opacity="1" stop-color="rgb(91.639709%, 18.807983%, 30.055237%)" offset="0.851563"/><stop stop-opacity="1" stop-color="rgb(92.068481%, 18.603516%, 29.727173%)" offset="0.855469"/><stop stop-opacity="1" stop-color="rgb(92.498779%, 18.399048%, 29.399109%)" offset="0.859375"/><stop stop-opacity="1" stop-color="rgb(92.498779%, 18.399048%, 29.399109%)" offset="0.875"/><stop stop-opacity="1" stop-color="rgb(92.498779%, 18.399048%, 29.399109%)" offset="1"/></linearGradient><clipPath id="7905000da0"><path d="M 33.640625 9.066406 L 39.597656 9.066406 L 39.597656 15.023438 L 33.640625 15.023438 Z M 33.640625 9.066406 " clip-rule="nonzero"/></clipPath><clipPath id="e233659c97"><path d="M 37 11 L 39.597656 11 L 39.597656 15 L 37 15 Z M 37 11 " clip-rule="nonzero"/></clipPath><clipPath id="a9564c2846"><path d="M 0.0664062 15 L 5 15 L 5 21 L 0.0664062 21 Z M 0.0664062 15 " clip-rule="nonzero"/></clipPath></defs><g clip-path="url(#26b3a40ef2)"><g fill="#FFFFFF" fill-opacity="1"><g transform="translate(0.066178, 13.14734)"><g><path d="M 1.828125 -1.078125 L 0.78125 -1.078125 L 0.78125 0 L 0.234375 0 L 0.234375 -2.65625 L 1.96875 -2.65625 L 1.96875 -2.21875 L 0.78125 -2.21875 L 0.78125 -1.53125 L 1.828125 -1.53125 Z M 1.828125 -1.078125 "/></g></g></g></g><g fill="#FFFFFF" fill-opacity="1"><g transform="translate(2.486324, 13.14734)"><g><path d="M 1.21875 -0.96875 L 0.78125 -0.96875 L 0.78125 0 L 0.234375 0 L 0.234375 -2.65625 L 1.21875 -2.65625 C 1.53125 -2.65625 1.769531 -2.582031 1.9375 -2.4375 C 2.113281 -2.300781 2.203125 -2.109375 2.203125 -1.859375 C 2.203125 -1.671875 2.160156 -1.515625 2.078125 -1.390625 C 2.003906 -1.273438 1.890625 -1.179688 1.734375 -1.109375 L 2.3125 -0.03125 L 2.3125 0 L 1.71875 0 Z M 0.78125 -1.421875 L 1.21875 -1.421875 C 1.363281 -1.421875 1.472656 -1.453125 1.546875 -1.515625 C 1.617188 -1.585938 1.65625 -1.6875 1.65625 -1.8125 C 1.65625 -1.9375 1.617188 -2.035156 1.546875 -2.109375 C 1.472656 -2.179688 1.363281 -2.21875 1.21875 -2.21875 L 0.78125 -2.21875 Z M 0.78125 -1.421875 "/></g></g></g><g fill="#FFFFFF" fill-opacity="1"><g transform="translate(5.24392, 13.14734)"><g><path d="M 2.421875 -1.265625 C 2.421875 -1.003906 2.375 -0.773438 2.28125 -0.578125 C 2.1875 -0.378906 2.050781 -0.226562 1.875 -0.125 C 1.707031 -0.0195312 1.515625 0.03125 1.296875 0.03125 C 1.078125 0.03125 0.878906 -0.0195312 0.703125 -0.125 C 0.523438 -0.226562 0.390625 -0.378906 0.296875 -0.578125 C 0.203125 -0.773438 0.15625 -1 0.15625 -1.25 L 0.15625 -1.390625 C 0.15625 -1.648438 0.203125 -1.878906 0.296875 -2.078125 C 0.390625 -2.273438 0.519531 -2.425781 0.6875 -2.53125 C 0.863281 -2.632812 1.0625 -2.6875 1.28125 -2.6875 C 1.507812 -2.6875 1.707031 -2.632812 1.875 -2.53125 C 2.050781 -2.425781 2.1875 -2.273438 2.28125 -2.078125 C 2.375 -1.878906 2.421875 -1.648438 2.421875 -1.390625 Z M 1.859375 -1.390625 C 1.859375 -1.671875 1.804688 -1.878906 1.703125 -2.015625 C 1.609375 -2.160156 1.46875 -2.234375 1.28125 -2.234375 C 1.101562 -2.234375 0.960938 -2.160156 0.859375 -2.015625 C 0.765625 -1.878906 0.71875 -1.671875 0.71875 -1.390625 L 0.71875 -1.265625 C 0.71875 -0.992188 0.765625 -0.78125 0.859375 -0.625 C 0.960938 -0.476562 1.109375 -0.40625 1.296875 -0.40625 C 1.472656 -0.40625 1.609375 -0.476562 1.703125 -0.625 C 1.804688 -0.769531 1.859375 -0.984375 1.859375 -1.265625 Z M 1.859375 -1.390625 "/></g></g></g><g fill="#FFFFFF" fill-opacity="1"><g transform="translate(8.196688, 13.14734)"><g><path d="M 2.390625 0 L 1.84375 0 L 0.78125 -1.75 L 0.78125 0 L 0.234375 0 L 0.234375 -2.65625 L 0.78125 -2.65625 L 1.84375 -0.90625 L 1.84375 -2.65625 L 2.390625 -2.65625 Z M 2.390625 0 "/></g></g></g><g fill="#FFFFFF" fill-opacity="1"><g transform="translate(11.207826, 13.14734)"><g><path d="M 2.234375 -2.21875 L 1.421875 -2.21875 L 1.421875 0 L 0.875 0 L 0.875 -2.21875 L 0.078125 -2.21875 L 0.078125 -2.65625 L 2.234375 -2.65625 Z M 2.234375 -2.21875 "/></g></g></g><g fill="#FFFFFF" fill-opacity="1"><g transform="translate(13.892459, 13.14734)"><g><path d="M 1.234375 -0.921875 L 0.203125 -0.921875 L 0.203125 -1.34375 L 1.234375 -1.34375 Z M 1.234375 -0.921875 "/></g></g></g><g fill="#FFFFFF" fill-opacity="1"><g transform="translate(15.714319, 13.14734)"><g><path d="M 1.828125 -1.15625 L 0.78125 -1.15625 L 0.78125 -0.4375 L 2.015625 -0.4375 L 2.015625 0 L 0.234375 0 L 0.234375 -2.65625 L 2.015625 -2.65625 L 2.015625 -2.21875 L 0.78125 -2.21875 L 0.78125 -1.578125 L 1.828125 -1.578125 Z M 1.828125 -1.15625 "/></g></g></g><g fill="#FFFFFF" fill-opacity="1"><g transform="translate(18.189187, 13.14734)"><g><path d="M 2.390625 0 L 1.84375 0 L 0.78125 -1.75 L 0.78125 0 L 0.234375 0 L 0.234375 -2.65625 L 0.78125 -2.65625 L 1.84375 -0.90625 L 1.84375 -2.65625 L 2.390625 -2.65625 Z M 2.390625 0 "/></g></g></g><g fill="#FFFFFF" fill-opacity="1"><g transform="translate(21.200326, 13.14734)"><g><path d="M 0.234375 0 L 0.234375 -2.65625 L 1.046875 -2.65625 C 1.285156 -2.65625 1.492188 -2.601562 1.671875 -2.5 C 1.859375 -2.394531 2.003906 -2.242188 2.109375 -2.046875 C 2.210938 -1.847656 2.265625 -1.628906 2.265625 -1.390625 L 2.265625 -1.265625 C 2.265625 -1.015625 2.210938 -0.789062 2.109375 -0.59375 C 2.015625 -0.40625 1.875 -0.257812 1.6875 -0.15625 C 1.5 -0.0507812 1.289062 0 1.0625 0 Z M 0.78125 -2.21875 L 0.78125 -0.4375 L 1.046875 -0.4375 C 1.265625 -0.4375 1.425781 -0.503906 1.53125 -0.640625 C 1.644531 -0.785156 1.707031 -0.988281 1.71875 -1.25 L 1.71875 -1.390625 C 1.71875 -1.660156 1.660156 -1.863281 1.546875 -2 C 1.429688 -2.144531 1.265625 -2.21875 1.046875 -2.21875 Z M 0.78125 -2.21875 "/></g></g></g><g clip-path="url(#6d7cfd2472)"><g clip-path="url(#f017cd567d)"><path fill="url(#103a0ea367)" d="M 25.753906 8.238281 L 25.753906 15.683594 L 32.449219 15.683594 L 32.449219 8.238281 Z M 25.753906 8.238281 " fill-rule="nonzero"/></g></g><g clip-path="url(#7905000da0)"><path fill="#007acc" d="M 33.640625 15.023438 L 39.597656 15.023438 L 39.597656 9.066406 L 33.640625 9.066406 Z M 33.640625 15.023438 " fill-opacity="1" fill-rule="nonzero"/></g><path fill="#ffffff" d="M 34.960938 12.066406 L 34.957031 12.308594 L 35.734375 12.308594 L 35.734375 14.511719 L 36.28125 14.511719 L 36.28125 12.308594 L 37.054688 12.308594 L 37.054688 12.070312 C 37.054688 11.9375 37.054688 11.828125 37.050781 11.824219 C 37.046875 11.820312 36.574219 11.820312 36.003906 11.820312 L 34.960938 11.820312 Z M 34.960938 12.066406 " fill-opacity="1" fill-rule="nonzero"/><g clip-path="url(#e233659c97)"><path fill="#ffffff" d="M 38.449219 11.816406 C 38.597656 11.851562 38.714844 11.921875 38.820312 12.03125 C 38.875 12.089844 38.957031 12.195312 38.964844 12.222656 C 38.964844 12.230469 38.707031 12.402344 38.550781 12.5 C 38.542969 12.503906 38.519531 12.480469 38.496094 12.441406 C 38.417969 12.328125 38.339844 12.28125 38.214844 12.273438 C 38.035156 12.261719 37.917969 12.355469 37.917969 12.511719 C 37.917969 12.558594 37.925781 12.585938 37.945312 12.625 C 37.984375 12.707031 38.058594 12.757812 38.289062 12.855469 C 38.71875 13.039062 38.898438 13.160156 39.011719 13.332031 C 39.140625 13.523438 39.167969 13.832031 39.082031 14.058594 C 38.988281 14.304688 38.753906 14.476562 38.421875 14.53125 C 38.320312 14.546875 38.078125 14.546875 37.96875 14.527344 C 37.730469 14.484375 37.503906 14.363281 37.363281 14.210938 C 37.308594 14.148438 37.203125 13.992188 37.207031 13.980469 C 37.210938 13.976562 37.234375 13.960938 37.261719 13.945312 C 37.289062 13.929688 37.390625 13.871094 37.484375 13.816406 L 37.65625 13.71875 L 37.691406 13.769531 C 37.742188 13.847656 37.851562 13.953125 37.917969 13.988281 C 38.105469 14.089844 38.367188 14.074219 38.496094 13.957031 C 38.550781 13.910156 38.574219 13.855469 38.574219 13.78125 C 38.574219 13.710938 38.566406 13.679688 38.53125 13.628906 C 38.484375 13.5625 38.390625 13.507812 38.121094 13.390625 C 37.8125 13.257812 37.679688 13.175781 37.558594 13.046875 C 37.488281 12.96875 37.421875 12.847656 37.394531 12.746094 C 37.375 12.664062 37.367188 12.453125 37.386719 12.367188 C 37.449219 12.070312 37.671875 11.863281 37.996094 11.800781 C 38.101562 11.78125 38.34375 11.789062 38.449219 11.816406 Z M 38.449219 11.816406 " fill-opacity="1" fill-rule="nonzero"/></g><g clip-path="url(#a9564c2846)"><g fill="#FFFFFF" fill-opacity="1"><g transform="translate(0.066178, 20.29875)"><g><path d="M 2.671875 -0.90625 C 2.828125 -0.90625 2.976562 -0.925781 3.125 -0.96875 C 3.269531 -1.019531 3.375 -1.066406 3.4375 -1.109375 L 3.546875 -1.1875 L 3.96875 -0.328125 C 3.957031 -0.316406 3.9375 -0.300781 3.90625 -0.28125 C 3.882812 -0.257812 3.828125 -0.222656 3.734375 -0.171875 C 3.640625 -0.128906 3.539062 -0.0859375 3.4375 -0.046875 C 3.34375 -0.015625 3.207031 0.0078125 3.03125 0.03125 C 2.863281 0.0625 2.691406 0.078125 2.515625 0.078125 C 2.109375 0.078125 1.71875 -0.0195312 1.34375 -0.21875 C 0.976562 -0.425781 0.679688 -0.707031 0.453125 -1.0625 C 0.234375 -1.414062 0.125 -1.796875 0.125 -2.203125 C 0.125 -2.515625 0.1875 -2.8125 0.3125 -3.09375 C 0.445312 -3.382812 0.625 -3.628906 0.84375 -3.828125 C 1.0625 -4.035156 1.316406 -4.195312 1.609375 -4.3125 C 1.910156 -4.4375 2.210938 -4.5 2.515625 -4.5 C 2.804688 -4.5 3.070312 -4.460938 3.3125 -4.390625 C 3.550781 -4.328125 3.722656 -4.265625 3.828125 -4.203125 L 3.96875 -4.09375 L 3.546875 -3.234375 C 3.515625 -3.253906 3.472656 -3.28125 3.421875 -3.3125 C 3.378906 -3.34375 3.28125 -3.382812 3.125 -3.4375 C 2.976562 -3.488281 2.828125 -3.515625 2.671875 -3.515625 C 2.429688 -3.515625 2.210938 -3.472656 2.015625 -3.390625 C 1.828125 -3.316406 1.675781 -3.210938 1.5625 -3.078125 C 1.445312 -2.953125 1.359375 -2.8125 1.296875 -2.65625 C 1.242188 -2.507812 1.21875 -2.363281 1.21875 -2.21875 C 1.21875 -1.875 1.34375 -1.566406 1.59375 -1.296875 C 1.84375 -1.035156 2.203125 -0.90625 2.671875 -0.90625 Z M 2.671875 -0.90625 "/></g></g></g></g><g fill="#FFFFFF" fill-opacity="1"><g transform="translate(4.63853, 20.29875)"><g><path d="M 2.84375 -4.421875 L 2.84375 -3.53125 L 1.328125 -3.53125 L 1.328125 -2.65625 L 2.78125 -2.65625 L 2.78125 -1.78125 L 1.328125 -1.78125 L 1.328125 -0.890625 L 2.84375 -0.890625 L 2.84375 0 L 0.328125 0 L 0.328125 -4.421875 Z M 2.84375 -4.421875 "/></g></g></g><g fill="#FFFFFF" fill-opacity="1"><g transform="translate(8.28355, 20.29875)"><g><path d="M 0.328125 -4.421875 L 1.90625 -4.421875 C 2.332031 -4.421875 2.675781 -4.304688 2.9375 -4.078125 C 3.207031 -3.847656 3.34375 -3.523438 3.34375 -3.109375 C 3.34375 -2.785156 3.257812 -2.515625 3.09375 -2.296875 C 2.9375 -2.078125 2.71875 -1.921875 2.4375 -1.828125 L 3.953125 0 L 2.6875 0 L 1.328125 -1.75 L 1.328125 0 L 0.328125 0 Z M 1.328125 -2.453125 L 1.453125 -2.453125 C 1.546875 -2.453125 1.625 -2.453125 1.6875 -2.453125 C 1.75 -2.460938 1.820312 -2.476562 1.90625 -2.5 C 1.988281 -2.519531 2.050781 -2.550781 2.09375 -2.59375 C 2.144531 -2.632812 2.1875 -2.691406 2.21875 -2.765625 C 2.257812 -2.835938 2.28125 -2.925781 2.28125 -3.03125 C 2.28125 -3.144531 2.257812 -3.238281 2.21875 -3.3125 C 2.1875 -3.382812 2.144531 -3.441406 2.09375 -3.484375 C 2.050781 -3.523438 1.988281 -3.554688 1.90625 -3.578125 C 1.820312 -3.597656 1.75 -3.609375 1.6875 -3.609375 C 1.625 -3.617188 1.546875 -3.625 1.453125 -3.625 L 1.328125 -3.625 Z M 1.328125 -2.453125 "/></g></g></g><g fill="#FFFFFF" fill-opacity="1"><g transform="translate(12.657571, 20.29875)"><g><path d="M 0.046875 -3.53125 L 0.046875 -4.421875 L 3.15625 -4.421875 L 3.15625 -3.53125 L 2.09375 -3.53125 L 2.09375 0 L 1.09375 0 L 1.09375 -3.53125 Z M 0.046875 -3.53125 "/></g></g></g><g fill="#FFFFFF" fill-opacity="1"><g transform="translate(16.388356, 20.29875)"><g><path d="M 1.328125 -4.421875 L 1.328125 0 L 0.328125 0 L 0.328125 -4.421875 Z M 1.328125 -4.421875 "/></g></g></g><g fill="#FFFFFF" fill-opacity="1"><g transform="translate(18.575368, 20.29875)"><g><path d="M 2.875 -4.421875 L 2.875 -3.53125 L 1.328125 -3.53125 L 1.328125 -2.65625 L 2.765625 -2.65625 L 2.765625 -1.78125 L 1.328125 -1.78125 L 1.328125 0 L 0.328125 0 L 0.328125 -4.421875 Z M 2.875 -4.421875 "/></g></g></g><g fill="#FFFFFF" fill-opacity="1"><g transform="translate(22.150702, 20.29875)"><g><path d="M 1.328125 -4.421875 L 1.328125 0 L 0.328125 0 L 0.328125 -4.421875 Z M 1.328125 -4.421875 "/></g></g></g><g fill="#FFFFFF" fill-opacity="1"><g transform="translate(24.337714, 20.29875)"><g><path d="M 2.671875 -0.90625 C 2.828125 -0.90625 2.976562 -0.925781 3.125 -0.96875 C 3.269531 -1.019531 3.375 -1.066406 3.4375 -1.109375 L 3.546875 -1.1875 L 3.96875 -0.328125 C 3.957031 -0.316406 3.9375 -0.300781 3.90625 -0.28125 C 3.882812 -0.257812 3.828125 -0.222656 3.734375 -0.171875 C 3.640625 -0.128906 3.539062 -0.0859375 3.4375 -0.046875 C 3.34375 -0.015625 3.207031 0.0078125 3.03125 0.03125 C 2.863281 0.0625 2.691406 0.078125 2.515625 0.078125 C 2.109375 0.078125 1.71875 -0.0195312 1.34375 -0.21875 C 0.976562 -0.425781 0.679688 -0.707031 0.453125 -1.0625 C 0.234375 -1.414062 0.125 -1.796875 0.125 -2.203125 C 0.125 -2.515625 0.1875 -2.8125 0.3125 -3.09375 C 0.445312 -3.382812 0.625 -3.628906 0.84375 -3.828125 C 1.0625 -4.035156 1.316406 -4.195312 1.609375 -4.3125 C 1.910156 -4.4375 2.210938 -4.5 2.515625 -4.5 C 2.804688 -4.5 3.070312 -4.460938 3.3125 -4.390625 C 3.550781 -4.328125 3.722656 -4.265625 3.828125 -4.203125 L 3.96875 -4.09375 L 3.546875 -3.234375 C 3.515625 -3.253906 3.472656 -3.28125 3.421875 -3.3125 C 3.378906 -3.34375 3.28125 -3.382812 3.125 -3.4375 C 2.976562 -3.488281 2.828125 -3.515625 2.671875 -3.515625 C 2.429688 -3.515625 2.210938 -3.472656 2.015625 -3.390625 C 1.828125 -3.316406 1.675781 -3.210938 1.5625 -3.078125 C 1.445312 -2.953125 1.359375 -2.8125 1.296875 -2.65625 C 1.242188 -2.507812 1.21875 -2.363281 1.21875 -2.21875 C 1.21875 -1.875 1.34375 -1.566406 1.59375 -1.296875 C 1.84375 -1.035156 2.203125 -0.90625 2.671875 -0.90625 Z M 2.671875 -0.90625 "/></g></g></g><g fill="#FFFFFF" fill-opacity="1"><g transform="translate(28.910064, 20.29875)"><g><path d="M 2.5625 -4.421875 L 4.359375 0 L 3.265625 0 L 2.9375 -0.890625 L 1.265625 -0.890625 L 0.9375 0 L -0.15625 0 L 1.640625 -4.421875 Z M 2.59375 -1.765625 L 2.109375 -3.0625 L 2.09375 -3.0625 L 1.609375 -1.765625 Z M 2.59375 -1.765625 "/></g></g></g><g fill="#FFFFFF" fill-opacity="1"><g transform="translate(33.648588, 20.29875)"><g><path d="M 0.046875 -3.53125 L 0.046875 -4.421875 L 3.15625 -4.421875 L 3.15625 -3.53125 L 2.09375 -3.53125 L 2.09375 0 L 1.09375 0 L 1.09375 -3.53125 Z M 0.046875 -3.53125 "/></g></g></g><g fill="#FFFFFF" fill-opacity="1"><g transform="translate(37.379372, 20.29875)"><g><path d="M 1.328125 -4.421875 L 1.328125 0 L 0.328125 0 L 0.328125 -4.421875 Z M 1.328125 -4.421875 "/></g></g></g><g fill="#FFFFFF" fill-opacity="1"><g transform="translate(39.566382, 20.29875)"><g><path d="M 0.125 -2.21875 C 0.125 -2.851562 0.34375 -3.390625 0.78125 -3.828125 C 1.21875 -4.273438 1.742188 -4.5 2.359375 -4.5 C 2.972656 -4.5 3.492188 -4.273438 3.921875 -3.828125 C 4.359375 -3.390625 4.578125 -2.851562 4.578125 -2.21875 C 4.578125 -1.570312 4.363281 -1.023438 3.9375 -0.578125 C 3.507812 -0.140625 2.984375 0.078125 2.359375 0.078125 C 1.703125 0.078125 1.164062 -0.140625 0.75 -0.578125 C 0.332031 -1.015625 0.125 -1.5625 0.125 -2.21875 Z M 1.21875 -2.21875 C 1.21875 -1.976562 1.25 -1.765625 1.3125 -1.578125 C 1.382812 -1.390625 1.507812 -1.226562 1.6875 -1.09375 C 1.875 -0.957031 2.097656 -0.890625 2.359375 -0.890625 C 2.734375 -0.890625 3.015625 -1.019531 3.203125 -1.28125 C 3.390625 -1.539062 3.484375 -1.851562 3.484375 -2.21875 C 3.484375 -2.570312 3.382812 -2.878906 3.1875 -3.140625 C 3 -3.398438 2.722656 -3.53125 2.359375 -3.53125 C 1.992188 -3.53125 1.710938 -3.398438 1.515625 -3.140625 C 1.316406 -2.878906 1.21875 -2.570312 1.21875 -2.21875 Z M 1.21875 -2.21875 "/></g></g></g><g fill="#FFFFFF" fill-opacity="1"><g transform="translate(44.803418, 20.29875)"><g><path d="M 1.328125 -2.75 L 1.328125 0 L 0.328125 0 L 0.328125 -4.421875 L 1.328125 -4.421875 L 3.09375 -1.671875 L 3.09375 -4.421875 L 4.109375 -4.421875 L 4.109375 0 L 3.09375 0 L 1.34375 -2.75 Z M 1.328125 -2.75 "/></g></g></g><g fill="#FFFFFF" fill-opacity="1"><g transform="translate(20.654431, 27.891243)"><g><path d="M 1.34375 0 L 1.046875 0 L 1.046875 -0.609375 L 0.484375 -0.609375 L 0.484375 0 L 0.171875 0 L 0.171875 -1.421875 L 0.484375 -1.421875 L 0.484375 -0.859375 L 1.046875 -0.859375 L 1.046875 -1.421875 L 1.34375 -1.421875 Z M 1.34375 0 "/></g></g></g><g fill="#FFFFFF" fill-opacity="1"><g transform="translate(22.167519, 27.891243)"><g><path d="M 1.046875 0 L 0.9375 -0.34375 L 0.421875 -0.34375 L 0.328125 0 L 0 0 L 0.5 -1.421875 L 0.875 -1.421875 L 1.375 0 Z M 0.875 -0.59375 C 0.78125 -0.894531 0.722656 -1.066406 0.703125 -1.109375 C 0.691406 -1.148438 0.6875 -1.179688 0.6875 -1.203125 C 0.664062 -1.117188 0.601562 -0.914062 0.5 -0.59375 Z M 0.875 -0.59375 "/></g></g></g><g fill="#FFFFFF" fill-opacity="1"><g transform="translate(23.531905, 27.891243)"><g><path d="M 0.484375 -0.78125 L 0.578125 -0.78125 C 0.671875 -0.78125 0.738281 -0.796875 0.78125 -0.828125 C 0.832031 -0.859375 0.859375 -0.910156 0.859375 -0.984375 C 0.859375 -1.046875 0.832031 -1.09375 0.78125 -1.125 C 0.738281 -1.15625 0.664062 -1.171875 0.5625 -1.171875 L 0.484375 -1.171875 Z M 0.484375 -0.546875 L 0.484375 0 L 0.171875 0 L 0.171875 -1.421875 L 0.59375 -1.421875 C 0.78125 -1.421875 0.921875 -1.382812 1.015625 -1.3125 C 1.109375 -1.238281 1.15625 -1.132812 1.15625 -1 C 1.15625 -0.914062 1.128906 -0.835938 1.078125 -0.765625 C 1.035156 -0.703125 0.972656 -0.65625 0.890625 -0.625 C 1.109375 -0.300781 1.25 -0.09375 1.3125 0 L 0.984375 0 L 0.640625 -0.546875 Z M 0.484375 -0.546875 "/></g></g></g><g fill="#FFFFFF" fill-opacity="1"><g transform="translate(24.83739, 27.891243)"><g><path d="M 1.359375 -0.71875 C 1.359375 -0.488281 1.289062 -0.3125 1.15625 -0.1875 C 1.019531 -0.0625 0.828125 0 0.578125 0 L 0.171875 0 L 0.171875 -1.421875 L 0.625 -1.421875 C 0.851562 -1.421875 1.03125 -1.359375 1.15625 -1.234375 C 1.289062 -1.109375 1.359375 -0.9375 1.359375 -0.71875 Z M 1.046875 -0.71875 C 1.046875 -1.019531 0.910156 -1.171875 0.640625 -1.171875 L 0.484375 -1.171875 L 0.484375 -0.25 L 0.609375 -0.25 C 0.898438 -0.25 1.046875 -0.40625 1.046875 -0.71875 Z M 1.046875 -0.71875 "/></g></g></g><g fill="#FFFFFF" fill-opacity="1"><g transform="translate(26.301232, 27.891243)"><g><path d="M 0.78125 -1.1875 C 0.664062 -1.1875 0.578125 -1.144531 0.515625 -1.0625 C 0.453125 -0.976562 0.421875 -0.859375 0.421875 -0.703125 C 0.421875 -0.390625 0.539062 -0.234375 0.78125 -0.234375 C 0.875 -0.234375 0.992188 -0.257812 1.140625 -0.3125 L 1.140625 -0.046875 C 1.023438 -0.00390625 0.894531 0.015625 0.75 0.015625 C 0.539062 0.015625 0.378906 -0.046875 0.265625 -0.171875 C 0.160156 -0.296875 0.109375 -0.472656 0.109375 -0.703125 C 0.109375 -0.847656 0.132812 -0.976562 0.1875 -1.09375 C 0.25 -1.207031 0.328125 -1.289062 0.421875 -1.34375 C 0.523438 -1.40625 0.644531 -1.4375 0.78125 -1.4375 C 0.914062 -1.4375 1.050781 -1.40625 1.1875 -1.34375 L 1.09375 -1.09375 C 1.039062 -1.113281 0.988281 -1.132812 0.9375 -1.15625 C 0.882812 -1.175781 0.832031 -1.1875 0.78125 -1.1875 Z M 0.78125 -1.1875 "/></g></g></g><g fill="#FFFFFF" fill-opacity="1"><g transform="translate(27.561333, 27.891243)"><g><path d="M 1.46875 -0.703125 C 1.46875 -0.472656 1.40625 -0.296875 1.28125 -0.171875 C 1.164062 -0.046875 1.003906 0.015625 0.796875 0.015625 C 0.578125 0.015625 0.40625 -0.046875 0.28125 -0.171875 C 0.164062 -0.296875 0.109375 -0.476562 0.109375 -0.71875 C 0.109375 -0.945312 0.164062 -1.125 0.28125 -1.25 C 0.40625 -1.375 0.578125 -1.4375 0.796875 -1.4375 C 1.015625 -1.4375 1.179688 -1.375 1.296875 -1.25 C 1.410156 -1.125 1.46875 -0.941406 1.46875 -0.703125 Z M 0.4375 -0.703125 C 0.4375 -0.546875 0.460938 -0.425781 0.515625 -0.34375 C 0.578125 -0.269531 0.671875 -0.234375 0.796875 -0.234375 C 1.035156 -0.234375 1.15625 -0.390625 1.15625 -0.703125 C 1.15625 -1.023438 1.035156 -1.1875 0.796875 -1.1875 C 0.671875 -1.1875 0.578125 -1.144531 0.515625 -1.0625 C 0.460938 -0.988281 0.4375 -0.867188 0.4375 -0.703125 Z M 0.4375 -0.703125 "/></g></g></g><g fill="#FFFFFF" fill-opacity="1"><g transform="translate(29.135254, 27.891243)"><g><path d="M 1.359375 -0.71875 C 1.359375 -0.488281 1.289062 -0.3125 1.15625 -0.1875 C 1.019531 -0.0625 0.828125 0 0.578125 0 L 0.171875 0 L 0.171875 -1.421875 L 0.625 -1.421875 C 0.851562 -1.421875 1.03125 -1.359375 1.15625 -1.234375 C 1.289062 -1.109375 1.359375 -0.9375 1.359375 -0.71875 Z M 1.046875 -0.71875 C 1.046875 -1.019531 0.910156 -1.171875 0.640625 -1.171875 L 0.484375 -1.171875 L 0.484375 -0.25 L 0.609375 -0.25 C 0.898438 -0.25 1.046875 -0.40625 1.046875 -0.71875 Z M 1.046875 -0.71875 "/></g></g></g><g fill="#FFFFFF" fill-opacity="1"><g transform="translate(30.599096, 27.891243)"><g><path d="M 1 0 L 0.171875 0 L 0.171875 -1.421875 L 1 -1.421875 L 1 -1.171875 L 0.484375 -1.171875 L 0.484375 -0.859375 L 0.953125 -0.859375 L 0.953125 -0.609375 L 0.484375 -0.609375 L 0.484375 -0.25 L 1 -0.25 Z M 1 0 "/></g></g></g><g fill="#FFFFFF" fill-opacity="1"><g transform="translate(31.706633, 27.891243)"><g><path d="M 0.484375 -0.78125 L 0.578125 -0.78125 C 0.671875 -0.78125 0.738281 -0.796875 0.78125 -0.828125 C 0.832031 -0.859375 0.859375 -0.910156 0.859375 -0.984375 C 0.859375 -1.046875 0.832031 -1.09375 0.78125 -1.125 C 0.738281 -1.15625 0.664062 -1.171875 0.5625 -1.171875 L 0.484375 -1.171875 Z M 0.484375 -0.546875 L 0.484375 0 L 0.171875 0 L 0.171875 -1.421875 L 0.59375 -1.421875 C 0.78125 -1.421875 0.921875 -1.382812 1.015625 -1.3125 C 1.109375 -1.238281 1.15625 -1.132812 1.15625 -1 C 1.15625 -0.914062 1.128906 -0.835938 1.078125 -0.765625 C 1.035156 -0.703125 0.972656 -0.65625 0.890625 -0.625 C 1.109375 -0.300781 1.25 -0.09375 1.3125 0 L 0.984375 0 L 0.640625 -0.546875 Z M 0.484375 -0.546875 "/></g></g></g><g fill="#FFFFFF" fill-opacity="1"><g transform="translate(33.012118, 27.891243)"><g><path d="M 1.015625 -0.390625 C 1.015625 -0.265625 0.96875 -0.164062 0.875 -0.09375 C 0.78125 -0.0195312 0.65625 0.015625 0.5 0.015625 C 0.34375 0.015625 0.207031 -0.0078125 0.09375 -0.0625 L 0.09375 -0.34375 C 0.1875 -0.300781 0.265625 -0.269531 0.328125 -0.25 C 0.398438 -0.238281 0.460938 -0.234375 0.515625 -0.234375 C 0.578125 -0.234375 0.625 -0.242188 0.65625 -0.265625 C 0.695312 -0.285156 0.71875 -0.320312 0.71875 -0.375 C 0.71875 -0.40625 0.707031 -0.429688 0.6875 -0.453125 C 0.675781 -0.472656 0.65625 -0.492188 0.625 -0.515625 C 0.59375 -0.535156 0.53125 -0.566406 0.4375 -0.609375 C 0.351562 -0.648438 0.289062 -0.6875 0.25 -0.71875 C 0.207031 -0.757812 0.171875 -0.804688 0.140625 -0.859375 C 0.117188 -0.910156 0.109375 -0.96875 0.109375 -1.03125 C 0.109375 -1.15625 0.148438 -1.253906 0.234375 -1.328125 C 0.316406 -1.398438 0.4375 -1.4375 0.59375 -1.4375 C 0.664062 -1.4375 0.734375 -1.425781 0.796875 -1.40625 C 0.859375 -1.394531 0.925781 -1.375 1 -1.34375 L 0.90625 -1.109375 C 0.832031 -1.140625 0.769531 -1.160156 0.71875 -1.171875 C 0.675781 -1.179688 0.628906 -1.1875 0.578125 -1.1875 C 0.523438 -1.1875 0.484375 -1.171875 0.453125 -1.140625 C 0.421875 -1.117188 0.40625 -1.085938 0.40625 -1.046875 C 0.40625 -1.015625 0.410156 -0.988281 0.421875 -0.96875 C 0.429688 -0.945312 0.445312 -0.925781 0.46875 -0.90625 C 0.5 -0.894531 0.566406 -0.863281 0.671875 -0.8125 C 0.804688 -0.75 0.894531 -0.6875 0.9375 -0.625 C 0.988281 -0.5625 1.015625 -0.484375 1.015625 -0.390625 Z M 1.015625 -0.390625 "/></g></g></g></svg>