<svg xmlns="http://www.w3.org/2000/svg" xmlns:xlink="http://www.w3.org/1999/xlink" width="69" zoomAndPan="magnify" viewBox="0 0 51.75 33.749998" height="45" preserveAspectRatio="xMidYMid meet" version="1.0"><defs><g/><clipPath id="79d45b6877"><path d="M 0.0664062 10 L 3 10 L 3 14 L 0.0664062 14 Z M 0.0664062 10 " clip-rule="nonzero"/></clipPath><clipPath id="17b64202f1"><path d="M 22.140625 7.804688 L 28.84375 7.804688 L 28.84375 15.25 L 22.140625 15.25 Z M 22.140625 7.804688 " clip-rule="nonzero"/></clipPath><clipPath id="de997da94b"><path d="M 30.984375 9.273438 L 38.429688 9.273438 L 38.429688 13.738281 L 30.984375 13.738281 Z M 30.984375 9.273438 " clip-rule="nonzero"/></clipPath><clipPath id="eea5c2afec"><path d="M 40.652344 8.878906 L 43.632812 8.878906 L 43.632812 14 L 40.652344 14 Z M 40.652344 8.878906 " clip-rule="nonzero"/></clipPath><clipPath id="1fed9e0129"><path d="M 41 14 L 43 14 L 43 14.835938 L 41 14.835938 Z M 41 14 " clip-rule="nonzero"/></clipPath><clipPath id="bc019d4e22"><path d="M 0.0664062 15 L 5 15 L 5 21 L 0.0664062 21 Z M 0.0664062 15 " clip-rule="nonzero"/></clipPath></defs><g clip-path="url(#79d45b6877)"><g fill="#FFFFFF" fill-opacity="1"><g transform="translate(0.066178, 13.14734)"><g><path d="M 0.234375 0 L 0.234375 -2.65625 L 1.171875 -2.65625 C 1.492188 -2.65625 1.738281 -2.59375 1.90625 -2.46875 C 2.070312 -2.34375 2.15625 -2.160156 2.15625 -1.921875 C 2.15625 -1.796875 2.117188 -1.679688 2.046875 -1.578125 C 1.984375 -1.484375 1.890625 -1.410156 1.765625 -1.359375 C 1.898438 -1.328125 2.003906 -1.257812 2.078125 -1.15625 C 2.160156 -1.050781 2.203125 -0.925781 2.203125 -0.78125 C 2.203125 -0.519531 2.117188 -0.320312 1.953125 -0.1875 C 1.796875 -0.0625 1.566406 0 1.265625 0 Z M 0.78125 -1.15625 L 0.78125 -0.4375 L 1.25 -0.4375 C 1.382812 -0.4375 1.484375 -0.46875 1.546875 -0.53125 C 1.617188 -0.59375 1.65625 -0.675781 1.65625 -0.78125 C 1.65625 -1.03125 1.53125 -1.15625 1.28125 -1.15625 Z M 0.78125 -1.546875 L 1.1875 -1.546875 C 1.46875 -1.546875 1.609375 -1.65625 1.609375 -1.875 C 1.609375 -1.988281 1.570312 -2.070312 1.5 -2.125 C 1.425781 -2.1875 1.316406 -2.21875 1.171875 -2.21875 L 0.78125 -2.21875 Z M 0.78125 -1.546875 "/></g></g></g></g><g fill="#FFFFFF" fill-opacity="1"><g transform="translate(2.823773, 13.14734)"><g><path d="M 1.734375 -0.546875 L 0.78125 -0.546875 L 0.59375 0 L 0.015625 0 L 1 -2.65625 L 1.515625 -2.65625 L 2.5 0 L 1.921875 0 Z M 0.921875 -0.984375 L 1.59375 -0.984375 L 1.25 -1.984375 Z M 0.921875 -0.984375 "/></g></g></g><g fill="#FFFFFF" fill-opacity="1"><g transform="translate(5.710876, 13.14734)"><g><path d="M 2.328125 -0.890625 C 2.304688 -0.597656 2.195312 -0.367188 2 -0.203125 C 1.8125 -0.046875 1.5625 0.03125 1.25 0.03125 C 0.90625 0.03125 0.632812 -0.0820312 0.4375 -0.3125 C 0.25 -0.539062 0.15625 -0.851562 0.15625 -1.25 L 0.15625 -1.40625 C 0.15625 -1.664062 0.195312 -1.890625 0.28125 -2.078125 C 0.375 -2.273438 0.503906 -2.425781 0.671875 -2.53125 C 0.835938 -2.632812 1.035156 -2.6875 1.265625 -2.6875 C 1.566406 -2.6875 1.8125 -2.601562 2 -2.4375 C 2.1875 -2.28125 2.296875 -2.050781 2.328125 -1.75 L 1.78125 -1.75 C 1.757812 -1.925781 1.707031 -2.050781 1.625 -2.125 C 1.550781 -2.207031 1.429688 -2.25 1.265625 -2.25 C 1.078125 -2.25 0.9375 -2.179688 0.84375 -2.046875 C 0.757812 -1.910156 0.71875 -1.707031 0.71875 -1.4375 L 0.71875 -1.234375 C 0.71875 -0.953125 0.757812 -0.742188 0.84375 -0.609375 C 0.925781 -0.472656 1.0625 -0.40625 1.25 -0.40625 C 1.414062 -0.40625 1.539062 -0.441406 1.625 -0.515625 C 1.707031 -0.597656 1.757812 -0.722656 1.78125 -0.890625 Z M 2.328125 -0.890625 "/></g></g></g><g fill="#FFFFFF" fill-opacity="1"><g transform="translate(8.528665, 13.14734)"><g><path d="M 1.0625 -1.0625 L 0.78125 -0.765625 L 0.78125 0 L 0.234375 0 L 0.234375 -2.65625 L 0.78125 -2.65625 L 0.78125 -1.453125 L 1.03125 -1.78125 L 1.703125 -2.65625 L 2.375 -2.65625 L 1.4375 -1.46875 L 2.40625 0 L 1.75 0 Z M 1.0625 -1.0625 "/></g></g></g><g fill="#FFFFFF" fill-opacity="1"><g transform="translate(11.273492, 13.14734)"><g><path d="M 1.234375 -0.921875 L 0.203125 -0.921875 L 0.203125 -1.34375 L 1.234375 -1.34375 Z M 1.234375 -0.921875 "/></g></g></g><g fill="#FFFFFF" fill-opacity="1"><g transform="translate(13.09535, 13.14734)"><g><path d="M 1.828125 -1.15625 L 0.78125 -1.15625 L 0.78125 -0.4375 L 2.015625 -0.4375 L 2.015625 0 L 0.234375 0 L 0.234375 -2.65625 L 2.015625 -2.65625 L 2.015625 -2.21875 L 0.78125 -2.21875 L 0.78125 -1.578125 L 1.828125 -1.578125 Z M 1.828125 -1.15625 "/></g></g></g><g fill="#FFFFFF" fill-opacity="1"><g transform="translate(15.570219, 13.14734)"><g><path d="M 2.390625 0 L 1.84375 0 L 0.78125 -1.75 L 0.78125 0 L 0.234375 0 L 0.234375 -2.65625 L 0.78125 -2.65625 L 1.84375 -0.90625 L 1.84375 -2.65625 L 2.390625 -2.65625 Z M 2.390625 0 "/></g></g></g><g fill="#FFFFFF" fill-opacity="1"><g transform="translate(18.581357, 13.14734)"><g><path d="M 0.234375 0 L 0.234375 -2.65625 L 1.046875 -2.65625 C 1.285156 -2.65625 1.492188 -2.601562 1.671875 -2.5 C 1.859375 -2.394531 2.003906 -2.242188 2.109375 -2.046875 C 2.210938 -1.847656 2.265625 -1.628906 2.265625 -1.390625 L 2.265625 -1.265625 C 2.265625 -1.015625 2.210938 -0.789062 2.109375 -0.59375 C 2.015625 -0.40625 1.875 -0.257812 1.6875 -0.15625 C 1.5 -0.0507812 1.289062 0 1.0625 0 Z M 0.78125 -2.21875 L 0.78125 -0.4375 L 1.046875 -0.4375 C 1.265625 -0.4375 1.425781 -0.503906 1.53125 -0.640625 C 1.644531 -0.785156 1.707031 -0.988281 1.71875 -1.25 L 1.71875 -1.390625 C 1.71875 -1.660156 1.660156 -1.863281 1.546875 -2 C 1.429688 -2.144531 1.265625 -2.21875 1.046875 -2.21875 Z M 0.78125 -2.21875 "/></g></g></g><g clip-path="url(#17b64202f1)"><path fill="#8cc84b" d="M 25.183594 7.902344 C 25.367188 7.796875 25.601562 7.796875 25.78125 7.902344 L 28.527344 9.464844 C 28.699219 9.5625 28.816406 9.753906 28.8125 9.953125 L 28.8125 13.085938 C 28.816406 13.292969 28.6875 13.492188 28.507812 13.585938 L 25.773438 15.140625 C 25.570312 15.253906 25.367188 15.25 25.167969 15.125 L 24.347656 14.644531 C 24.292969 14.613281 24.226562 14.585938 24.1875 14.53125 C 24.222656 14.484375 24.285156 14.476562 24.335938 14.457031 C 24.449219 14.421875 24.554688 14.363281 24.660156 14.304688 C 24.6875 14.285156 24.71875 14.292969 24.742188 14.308594 L 25.445312 14.71875 C 25.492188 14.746094 25.542969 14.707031 25.585938 14.683594 L 28.269531 13.15625 C 28.304688 13.140625 28.320312 13.105469 28.320312 13.070312 L 28.320312 9.96875 C 28.324219 9.925781 28.300781 9.886719 28.261719 9.871094 L 25.535156 8.324219 C 25.5 8.300781 25.464844 8.300781 25.429688 8.324219 L 22.707031 9.875 C 22.667969 9.890625 22.644531 9.929688 22.648438 9.972656 L 22.648438 13.070312 C 22.644531 13.109375 22.664062 13.144531 22.699219 13.160156 L 23.425781 13.574219 C 23.5625 13.648438 23.730469 13.6875 23.878906 13.632812 C 24.03125 13.578125 24.105469 13.46875 24.105469 13.308594 L 24.105469 10.226562 C 24.101562 10.179688 24.144531 10.140625 24.1875 10.144531 L 24.539062 10.144531 C 24.582031 10.144531 24.621094 10.195312 24.613281 10.238281 L 24.613281 13.34375 C 24.613281 13.617188 24.5 13.917969 24.25 14.050781 C 23.9375 14.214844 23.550781 14.179688 23.242188 14.023438 L 22.460938 13.589844 C 22.277344 13.496094 22.152344 13.296875 22.15625 13.085938 L 22.15625 9.957031 C 22.15625 9.734375 22.253906 9.566406 22.449219 9.460938 Z M 25.976562 10.074219 C 26.371094 10.050781 26.796875 10.058594 27.15625 10.253906 C 27.433594 10.40625 27.585938 10.722656 27.589844 11.035156 C 27.582031 11.074219 27.539062 11.097656 27.5 11.09375 C 27.382812 11.09375 27.269531 11.097656 27.152344 11.09375 C 27.105469 11.097656 27.078125 11.050781 27.070312 11.007812 C 27.035156 10.859375 26.957031 10.710938 26.816406 10.640625 C 26.605469 10.535156 26.359375 10.539062 26.128906 10.542969 C 25.957031 10.550781 25.777344 10.566406 25.632812 10.664062 C 25.523438 10.742188 25.488281 10.898438 25.527344 11.019531 C 25.566406 11.105469 25.667969 11.136719 25.75 11.160156 C 26.230469 11.289062 26.734375 11.277344 27.207031 11.441406 C 27.402344 11.507812 27.589844 11.640625 27.65625 11.847656 C 27.746094 12.121094 27.707031 12.449219 27.511719 12.671875 C 27.355469 12.851562 27.125 12.949219 26.898438 13.003906 C 26.59375 13.074219 26.277344 13.074219 25.96875 13.046875 C 25.679688 13.011719 25.375 12.933594 25.152344 12.734375 C 24.960938 12.566406 24.867188 12.304688 24.875 12.054688 C 24.878906 12.011719 24.917969 11.980469 24.960938 11.984375 L 25.304688 11.984375 C 25.351562 11.980469 25.386719 12.023438 25.386719 12.066406 C 25.410156 12.203125 25.460938 12.355469 25.585938 12.4375 C 25.820312 12.589844 26.117188 12.578125 26.386719 12.585938 C 26.609375 12.574219 26.863281 12.570312 27.042969 12.421875 C 27.140625 12.335938 27.167969 12.195312 27.144531 12.070312 C 27.117188 11.96875 27.003906 11.921875 26.914062 11.886719 C 26.441406 11.734375 25.929688 11.789062 25.460938 11.621094 C 25.269531 11.550781 25.085938 11.425781 25.011719 11.226562 C 24.910156 10.949219 24.957031 10.605469 25.171875 10.390625 C 25.378906 10.179688 25.683594 10.097656 25.96875 10.066406 Z M 25.976562 10.074219 " fill-opacity="1" fill-rule="nonzero"/></g><g clip-path="url(#de997da94b)"><path fill="#FFFFFF" d="M 35.691406 11 C 35.664062 11.027344 35.621094 11.023438 35.597656 10.992188 C 35.476562 10.824219 35.347656 10.648438 35.210938 10.460938 C 35.074219 10.277344 34.949219 10.105469 34.839844 9.945312 C 34.726562 9.785156 34.628906 9.652344 34.554688 9.542969 C 34.480469 9.433594 34.441406 9.375 34.441406 9.359375 C 34.441406 9.335938 34.449219 9.316406 34.46875 9.300781 C 34.484375 9.28125 34.507812 9.273438 34.53125 9.273438 C 34.558594 9.273438 34.582031 9.285156 34.601562 9.308594 C 34.628906 9.351562 34.699219 9.449219 34.804688 9.59375 C 34.910156 9.742188 35.039062 9.917969 35.191406 10.128906 C 35.34375 10.335938 35.515625 10.566406 35.699219 10.820312 C 35.714844 10.839844 35.726562 10.859375 35.742188 10.878906 C 35.761719 10.902344 35.757812 10.933594 35.738281 10.953125 Z M 37.613281 13.453125 C 37.53125 13.332031 37.421875 13.179688 37.285156 12.988281 C 37.148438 12.796875 36.988281 12.578125 36.8125 12.335938 C 36.796875 12.3125 36.78125 12.289062 36.761719 12.265625 C 36.730469 12.222656 36.664062 12.214844 36.621094 12.253906 C 36.589844 12.285156 36.585938 12.335938 36.613281 12.371094 L 37.582031 13.703125 C 37.597656 13.726562 37.617188 13.738281 37.648438 13.738281 C 37.671875 13.738281 37.691406 13.726562 37.710938 13.710938 C 37.730469 13.695312 37.738281 13.671875 37.738281 13.648438 C 37.738281 13.636719 37.699219 13.570312 37.613281 13.453125 Z M 33.257812 11.34375 C 33.28125 11.34375 33.300781 11.335938 33.316406 11.320312 C 33.335938 11.300781 33.34375 11.28125 33.34375 11.257812 C 33.34375 11.234375 33.335938 11.214844 33.316406 11.199219 C 33.300781 11.179688 33.28125 11.171875 33.257812 11.171875 L 31.160156 11.171875 L 31.160156 9.449219 L 33.851562 9.449219 C 33.875 9.449219 33.894531 9.4375 33.910156 9.421875 C 33.929688 9.40625 33.9375 9.382812 33.9375 9.363281 C 33.9375 9.339844 33.929688 9.316406 33.910156 9.300781 C 33.894531 9.285156 33.875 9.273438 33.851562 9.273438 L 31.078125 9.273438 C 31.054688 9.273438 31.03125 9.28125 31.011719 9.296875 C 30.992188 9.3125 30.984375 9.332031 30.984375 9.359375 L 30.984375 11.363281 Z M 37.9375 9.296875 C 37.917969 9.28125 37.898438 9.273438 37.875 9.273438 C 37.84375 9.273438 37.824219 9.285156 37.808594 9.308594 C 37.808594 9.308594 35.738281 12.152344 35.667969 12.246094 C 35.5625 12.386719 35.453125 12.539062 35.332031 12.695312 C 35.214844 12.855469 35.105469 13.003906 35.007812 13.140625 C 34.910156 13.277344 34.828125 13.394531 34.765625 13.488281 C 34.75 13.511719 34.738281 13.53125 34.726562 13.546875 L 31.160156 13.546875 L 31.160156 11.902344 L 33.28125 11.902344 C 33.304688 11.902344 33.324219 11.894531 33.34375 11.875 C 33.363281 11.855469 33.371094 11.835938 33.371094 11.816406 C 33.371094 11.757812 33.339844 11.730469 33.28125 11.730469 L 30.984375 11.714844 L 30.984375 13.640625 C 30.984375 13.667969 30.992188 13.691406 31.011719 13.707031 C 31.027344 13.726562 31.050781 13.738281 31.078125 13.738281 L 34.757812 13.738281 C 34.785156 13.738281 34.808594 13.726562 34.828125 13.703125 C 34.828125 13.703125 34.84375 13.683594 34.871094 13.640625 C 35.230469 13.152344 37.570312 9.949219 37.65625 9.832031 C 37.746094 9.707031 37.820312 9.597656 37.878906 9.511719 C 37.9375 9.425781 37.964844 9.375 37.964844 9.359375 C 37.964844 9.332031 37.957031 9.3125 37.9375 9.296875 Z M 38.40625 13.601562 L 37.148438 11.875 C 37.117188 11.832031 37.054688 11.828125 37.019531 11.867188 C 36.988281 11.894531 36.984375 11.941406 37.007812 11.976562 C 37.0625 12.050781 37.117188 12.121094 37.167969 12.191406 C 37.351562 12.441406 37.523438 12.667969 37.675781 12.878906 C 37.828125 13.085938 37.957031 13.265625 38.0625 13.410156 C 38.167969 13.558594 38.234375 13.65625 38.265625 13.703125 C 38.28125 13.726562 38.304688 13.738281 38.339844 13.738281 C 38.355469 13.738281 38.378906 13.730469 38.398438 13.714844 C 38.417969 13.699219 38.429688 13.679688 38.429688 13.660156 C 38.429688 13.636719 38.421875 13.617188 38.40625 13.601562 Z M 35.289062 9.320312 C 35.269531 9.296875 35.25 9.285156 35.226562 9.285156 C 35.207031 9.285156 35.183594 9.292969 35.164062 9.3125 C 35.140625 9.328125 35.132812 9.347656 35.132812 9.375 C 35.132812 9.386719 35.171875 9.453125 35.257812 9.574219 C 35.339844 9.695312 35.449219 9.847656 35.585938 10.039062 C 35.703125 10.199219 35.832031 10.375 35.976562 10.570312 C 36.007812 10.617188 36.074219 10.621094 36.113281 10.582031 C 36.148438 10.550781 36.152344 10.5 36.125 10.464844 Z M 35.289062 9.320312 " fill-opacity="1" fill-rule="nonzero"/></g><g clip-path="url(#eea5c2afec)"><path fill="#689f38" d="M 43.632812 12.128906 C 43.632812 10.367188 42.144531 8.878906 42.144531 8.878906 C 42.144531 8.878906 40.652344 10.367188 40.652344 12.128906 C 40.652344 13.574219 41.660156 13.921875 42.019531 14 L 42.144531 9.824219 L 42.265625 14 C 42.625 13.921875 43.632812 13.574219 43.632812 12.128906 Z M 43.632812 12.128906 " fill-opacity="1" fill-rule="nonzero"/></g><g clip-path="url(#1fed9e0129)"><path fill="#689f38" d="M 42.019531 14 L 41.992188 14.835938 L 42.292969 14.835938 L 42.265625 14 C 42.191406 14.019531 42.144531 14.023438 42.144531 14.023438 C 42.144531 14.023438 42.09375 14.019531 42.019531 14 Z M 42.019531 14 " fill-opacity="1" fill-rule="nonzero"/></g><g clip-path="url(#bc019d4e22)"><g fill="#FFFFFF" fill-opacity="1"><g transform="translate(0.066178, 20.29875)"><g><path d="M 2.671875 -0.90625 C 2.828125 -0.90625 2.976562 -0.925781 3.125 -0.96875 C 3.269531 -1.019531 3.375 -1.066406 3.4375 -1.109375 L 3.546875 -1.1875 L 3.96875 -0.328125 C 3.957031 -0.316406 3.9375 -0.300781 3.90625 -0.28125 C 3.882812 -0.257812 3.828125 -0.222656 3.734375 -0.171875 C 3.640625 -0.128906 3.539062 -0.0859375 3.4375 -0.046875 C 3.34375 -0.015625 3.207031 0.0078125 3.03125 0.03125 C 2.863281 0.0625 2.691406 0.078125 2.515625 0.078125 C 2.109375 0.078125 1.71875 -0.0195312 1.34375 -0.21875 C 0.976562 -0.425781 0.679688 -0.707031 0.453125 -1.0625 C 0.234375 -1.414062 0.125 -1.796875 0.125 -2.203125 C 0.125 -2.515625 0.1875 -2.8125 0.3125 -3.09375 C 0.445312 -3.382812 0.625 -3.628906 0.84375 -3.828125 C 1.0625 -4.035156 1.316406 -4.195312 1.609375 -4.3125 C 1.910156 -4.4375 2.210938 -4.5 2.515625 -4.5 C 2.804688 -4.5 3.070312 -4.460938 3.3125 -4.390625 C 3.550781 -4.328125 3.722656 -4.265625 3.828125 -4.203125 L 3.96875 -4.09375 L 3.546875 -3.234375 C 3.515625 -3.253906 3.472656 -3.28125 3.421875 -3.3125 C 3.378906 -3.34375 3.28125 -3.382812 3.125 -3.4375 C 2.976562 -3.488281 2.828125 -3.515625 2.671875 -3.515625 C 2.429688 -3.515625 2.210938 -3.472656 2.015625 -3.390625 C 1.828125 -3.316406 1.675781 -3.210938 1.5625 -3.078125 C 1.445312 -2.953125 1.359375 -2.8125 1.296875 -2.65625 C 1.242188 -2.507812 1.21875 -2.363281 1.21875 -2.21875 C 1.21875 -1.875 1.34375 -1.566406 1.59375 -1.296875 C 1.84375 -1.035156 2.203125 -0.90625 2.671875 -0.90625 Z M 2.671875 -0.90625 "/></g></g></g></g><g fill="#FFFFFF" fill-opacity="1"><g transform="translate(4.63853, 20.29875)"><g><path d="M 2.84375 -4.421875 L 2.84375 -3.53125 L 1.328125 -3.53125 L 1.328125 -2.65625 L 2.78125 -2.65625 L 2.78125 -1.78125 L 1.328125 -1.78125 L 1.328125 -0.890625 L 2.84375 -0.890625 L 2.84375 0 L 0.328125 0 L 0.328125 -4.421875 Z M 2.84375 -4.421875 "/></g></g></g><g fill="#FFFFFF" fill-opacity="1"><g transform="translate(8.28355, 20.29875)"><g><path d="M 0.328125 -4.421875 L 1.90625 -4.421875 C 2.332031 -4.421875 2.675781 -4.304688 2.9375 -4.078125 C 3.207031 -3.847656 3.34375 -3.523438 3.34375 -3.109375 C 3.34375 -2.785156 3.257812 -2.515625 3.09375 -2.296875 C 2.9375 -2.078125 2.71875 -1.921875 2.4375 -1.828125 L 3.953125 0 L 2.6875 0 L 1.328125 -1.75 L 1.328125 0 L 0.328125 0 Z M 1.328125 -2.453125 L 1.453125 -2.453125 C 1.546875 -2.453125 1.625 -2.453125 1.6875 -2.453125 C 1.75 -2.460938 1.820312 -2.476562 1.90625 -2.5 C 1.988281 -2.519531 2.050781 -2.550781 2.09375 -2.59375 C 2.144531 -2.632812 2.1875 -2.691406 2.21875 -2.765625 C 2.257812 -2.835938 2.28125 -2.925781 2.28125 -3.03125 C 2.28125 -3.144531 2.257812 -3.238281 2.21875 -3.3125 C 2.1875 -3.382812 2.144531 -3.441406 2.09375 -3.484375 C 2.050781 -3.523438 1.988281 -3.554688 1.90625 -3.578125 C 1.820312 -3.597656 1.75 -3.609375 1.6875 -3.609375 C 1.625 -3.617188 1.546875 -3.625 1.453125 -3.625 L 1.328125 -3.625 Z M 1.328125 -2.453125 "/></g></g></g><g fill="#FFFFFF" fill-opacity="1"><g transform="translate(12.657571, 20.29875)"><g><path d="M 0.046875 -3.53125 L 0.046875 -4.421875 L 3.15625 -4.421875 L 3.15625 -3.53125 L 2.09375 -3.53125 L 2.09375 0 L 1.09375 0 L 1.09375 -3.53125 Z M 0.046875 -3.53125 "/></g></g></g><g fill="#FFFFFF" fill-opacity="1"><g transform="translate(16.388356, 20.29875)"><g><path d="M 1.328125 -4.421875 L 1.328125 0 L 0.328125 0 L 0.328125 -4.421875 Z M 1.328125 -4.421875 "/></g></g></g><g fill="#FFFFFF" fill-opacity="1"><g transform="translate(18.575368, 20.29875)"><g><path d="M 2.875 -4.421875 L 2.875 -3.53125 L 1.328125 -3.53125 L 1.328125 -2.65625 L 2.765625 -2.65625 L 2.765625 -1.78125 L 1.328125 -1.78125 L 1.328125 0 L 0.328125 0 L 0.328125 -4.421875 Z M 2.875 -4.421875 "/></g></g></g><g fill="#FFFFFF" fill-opacity="1"><g transform="translate(22.150702, 20.29875)"><g><path d="M 1.328125 -4.421875 L 1.328125 0 L 0.328125 0 L 0.328125 -4.421875 Z M 1.328125 -4.421875 "/></g></g></g><g fill="#FFFFFF" fill-opacity="1"><g transform="translate(24.337714, 20.29875)"><g><path d="M 2.671875 -0.90625 C 2.828125 -0.90625 2.976562 -0.925781 3.125 -0.96875 C 3.269531 -1.019531 3.375 -1.066406 3.4375 -1.109375 L 3.546875 -1.1875 L 3.96875 -0.328125 C 3.957031 -0.316406 3.9375 -0.300781 3.90625 -0.28125 C 3.882812 -0.257812 3.828125 -0.222656 3.734375 -0.171875 C 3.640625 -0.128906 3.539062 -0.0859375 3.4375 -0.046875 C 3.34375 -0.015625 3.207031 0.0078125 3.03125 0.03125 C 2.863281 0.0625 2.691406 0.078125 2.515625 0.078125 C 2.109375 0.078125 1.71875 -0.0195312 1.34375 -0.21875 C 0.976562 -0.425781 0.679688 -0.707031 0.453125 -1.0625 C 0.234375 -1.414062 0.125 -1.796875 0.125 -2.203125 C 0.125 -2.515625 0.1875 -2.8125 0.3125 -3.09375 C 0.445312 -3.382812 0.625 -3.628906 0.84375 -3.828125 C 1.0625 -4.035156 1.316406 -4.195312 1.609375 -4.3125 C 1.910156 -4.4375 2.210938 -4.5 2.515625 -4.5 C 2.804688 -4.5 3.070312 -4.460938 3.3125 -4.390625 C 3.550781 -4.328125 3.722656 -4.265625 3.828125 -4.203125 L 3.96875 -4.09375 L 3.546875 -3.234375 C 3.515625 -3.253906 3.472656 -3.28125 3.421875 -3.3125 C 3.378906 -3.34375 3.28125 -3.382812 3.125 -3.4375 C 2.976562 -3.488281 2.828125 -3.515625 2.671875 -3.515625 C 2.429688 -3.515625 2.210938 -3.472656 2.015625 -3.390625 C 1.828125 -3.316406 1.675781 -3.210938 1.5625 -3.078125 C 1.445312 -2.953125 1.359375 -2.8125 1.296875 -2.65625 C 1.242188 -2.507812 1.21875 -2.363281 1.21875 -2.21875 C 1.21875 -1.875 1.34375 -1.566406 1.59375 -1.296875 C 1.84375 -1.035156 2.203125 -0.90625 2.671875 -0.90625 Z M 2.671875 -0.90625 "/></g></g></g><g fill="#FFFFFF" fill-opacity="1"><g transform="translate(28.910064, 20.29875)"><g><path d="M 2.5625 -4.421875 L 4.359375 0 L 3.265625 0 L 2.9375 -0.890625 L 1.265625 -0.890625 L 0.9375 0 L -0.15625 0 L 1.640625 -4.421875 Z M 2.59375 -1.765625 L 2.109375 -3.0625 L 2.09375 -3.0625 L 1.609375 -1.765625 Z M 2.59375 -1.765625 "/></g></g></g><g fill="#FFFFFF" fill-opacity="1"><g transform="translate(33.648588, 20.29875)"><g><path d="M 0.046875 -3.53125 L 0.046875 -4.421875 L 3.15625 -4.421875 L 3.15625 -3.53125 L 2.09375 -3.53125 L 2.09375 0 L 1.09375 0 L 1.09375 -3.53125 Z M 0.046875 -3.53125 "/></g></g></g><g fill="#FFFFFF" fill-opacity="1"><g transform="translate(37.379372, 20.29875)"><g><path d="M 1.328125 -4.421875 L 1.328125 0 L 0.328125 0 L 0.328125 -4.421875 Z M 1.328125 -4.421875 "/></g></g></g><g fill="#FFFFFF" fill-opacity="1"><g transform="translate(39.566382, 20.29875)"><g><path d="M 0.125 -2.21875 C 0.125 -2.851562 0.34375 -3.390625 0.78125 -3.828125 C 1.21875 -4.273438 1.742188 -4.5 2.359375 -4.5 C 2.972656 -4.5 3.492188 -4.273438 3.921875 -3.828125 C 4.359375 -3.390625 4.578125 -2.851562 4.578125 -2.21875 C 4.578125 -1.570312 4.363281 -1.023438 3.9375 -0.578125 C 3.507812 -0.140625 2.984375 0.078125 2.359375 0.078125 C 1.703125 0.078125 1.164062 -0.140625 0.75 -0.578125 C 0.332031 -1.015625 0.125 -1.5625 0.125 -2.21875 Z M 1.21875 -2.21875 C 1.21875 -1.976562 1.25 -1.765625 1.3125 -1.578125 C 1.382812 -1.390625 1.507812 -1.226562 1.6875 -1.09375 C 1.875 -0.957031 2.097656 -0.890625 2.359375 -0.890625 C 2.734375 -0.890625 3.015625 -1.019531 3.203125 -1.28125 C 3.390625 -1.539062 3.484375 -1.851562 3.484375 -2.21875 C 3.484375 -2.570312 3.382812 -2.878906 3.1875 -3.140625 C 3 -3.398438 2.722656 -3.53125 2.359375 -3.53125 C 1.992188 -3.53125 1.710938 -3.398438 1.515625 -3.140625 C 1.316406 -2.878906 1.21875 -2.570312 1.21875 -2.21875 Z M 1.21875 -2.21875 "/></g></g></g><g fill="#FFFFFF" fill-opacity="1"><g transform="translate(44.803418, 20.29875)"><g><path d="M 1.328125 -2.75 L 1.328125 0 L 0.328125 0 L 0.328125 -4.421875 L 1.328125 -4.421875 L 3.09375 -1.671875 L 3.09375 -4.421875 L 4.109375 -4.421875 L 4.109375 0 L 3.09375 0 L 1.34375 -2.75 Z M 1.328125 -2.75 "/></g></g></g><g fill="#FFFFFF" fill-opacity="1"><g transform="translate(20.654431, 27.891243)"><g><path d="M 1.34375 0 L 1.046875 0 L 1.046875 -0.609375 L 0.484375 -0.609375 L 0.484375 0 L 0.171875 0 L 0.171875 -1.421875 L 0.484375 -1.421875 L 0.484375 -0.859375 L 1.046875 -0.859375 L 1.046875 -1.421875 L 1.34375 -1.421875 Z M 1.34375 0 "/></g></g></g><g fill="#FFFFFF" fill-opacity="1"><g transform="translate(22.167519, 27.891243)"><g><path d="M 1.046875 0 L 0.9375 -0.34375 L 0.421875 -0.34375 L 0.328125 0 L 0 0 L 0.5 -1.421875 L 0.875 -1.421875 L 1.375 0 Z M 0.875 -0.59375 C 0.78125 -0.894531 0.722656 -1.066406 0.703125 -1.109375 C 0.691406 -1.148438 0.6875 -1.179688 0.6875 -1.203125 C 0.664062 -1.117188 0.601562 -0.914062 0.5 -0.59375 Z M 0.875 -0.59375 "/></g></g></g><g fill="#FFFFFF" fill-opacity="1"><g transform="translate(23.531905, 27.891243)"><g><path d="M 0.484375 -0.78125 L 0.578125 -0.78125 C 0.671875 -0.78125 0.738281 -0.796875 0.78125 -0.828125 C 0.832031 -0.859375 0.859375 -0.910156 0.859375 -0.984375 C 0.859375 -1.046875 0.832031 -1.09375 0.78125 -1.125 C 0.738281 -1.15625 0.664062 -1.171875 0.5625 -1.171875 L 0.484375 -1.171875 Z M 0.484375 -0.546875 L 0.484375 0 L 0.171875 0 L 0.171875 -1.421875 L 0.59375 -1.421875 C 0.78125 -1.421875 0.921875 -1.382812 1.015625 -1.3125 C 1.109375 -1.238281 1.15625 -1.132812 1.15625 -1 C 1.15625 -0.914062 1.128906 -0.835938 1.078125 -0.765625 C 1.035156 -0.703125 0.972656 -0.65625 0.890625 -0.625 C 1.109375 -0.300781 1.25 -0.09375 1.3125 0 L 0.984375 0 L 0.640625 -0.546875 Z M 0.484375 -0.546875 "/></g></g></g><g fill="#FFFFFF" fill-opacity="1"><g transform="translate(24.83739, 27.891243)"><g><path d="M 1.359375 -0.71875 C 1.359375 -0.488281 1.289062 -0.3125 1.15625 -0.1875 C 1.019531 -0.0625 0.828125 0 0.578125 0 L 0.171875 0 L 0.171875 -1.421875 L 0.625 -1.421875 C 0.851562 -1.421875 1.03125 -1.359375 1.15625 -1.234375 C 1.289062 -1.109375 1.359375 -0.9375 1.359375 -0.71875 Z M 1.046875 -0.71875 C 1.046875 -1.019531 0.910156 -1.171875 0.640625 -1.171875 L 0.484375 -1.171875 L 0.484375 -0.25 L 0.609375 -0.25 C 0.898438 -0.25 1.046875 -0.40625 1.046875 -0.71875 Z M 1.046875 -0.71875 "/></g></g></g><g fill="#FFFFFF" fill-opacity="1"><g transform="translate(26.301232, 27.891243)"><g><path d="M 0.78125 -1.1875 C 0.664062 -1.1875 0.578125 -1.144531 0.515625 -1.0625 C 0.453125 -0.976562 0.421875 -0.859375 0.421875 -0.703125 C 0.421875 -0.390625 0.539062 -0.234375 0.78125 -0.234375 C 0.875 -0.234375 0.992188 -0.257812 1.140625 -0.3125 L 1.140625 -0.046875 C 1.023438 -0.00390625 0.894531 0.015625 0.75 0.015625 C 0.539062 0.015625 0.378906 -0.046875 0.265625 -0.171875 C 0.160156 -0.296875 0.109375 -0.472656 0.109375 -0.703125 C 0.109375 -0.847656 0.132812 -0.976562 0.1875 -1.09375 C 0.25 -1.207031 0.328125 -1.289062 0.421875 -1.34375 C 0.523438 -1.40625 0.644531 -1.4375 0.78125 -1.4375 C 0.914062 -1.4375 1.050781 -1.40625 1.1875 -1.34375 L 1.09375 -1.09375 C 1.039062 -1.113281 0.988281 -1.132812 0.9375 -1.15625 C 0.882812 -1.175781 0.832031 -1.1875 0.78125 -1.1875 Z M 0.78125 -1.1875 "/></g></g></g><g fill="#FFFFFF" fill-opacity="1"><g transform="translate(27.561333, 27.891243)"><g><path d="M 1.46875 -0.703125 C 1.46875 -0.472656 1.40625 -0.296875 1.28125 -0.171875 C 1.164062 -0.046875 1.003906 0.015625 0.796875 0.015625 C 0.578125 0.015625 0.40625 -0.046875 0.28125 -0.171875 C 0.164062 -0.296875 0.109375 -0.476562 0.109375 -0.71875 C 0.109375 -0.945312 0.164062 -1.125 0.28125 -1.25 C 0.40625 -1.375 0.578125 -1.4375 0.796875 -1.4375 C 1.015625 -1.4375 1.179688 -1.375 1.296875 -1.25 C 1.410156 -1.125 1.46875 -0.941406 1.46875 -0.703125 Z M 0.4375 -0.703125 C 0.4375 -0.546875 0.460938 -0.425781 0.515625 -0.34375 C 0.578125 -0.269531 0.671875 -0.234375 0.796875 -0.234375 C 1.035156 -0.234375 1.15625 -0.390625 1.15625 -0.703125 C 1.15625 -1.023438 1.035156 -1.1875 0.796875 -1.1875 C 0.671875 -1.1875 0.578125 -1.144531 0.515625 -1.0625 C 0.460938 -0.988281 0.4375 -0.867188 0.4375 -0.703125 Z M 0.4375 -0.703125 "/></g></g></g><g fill="#FFFFFF" fill-opacity="1"><g transform="translate(29.135254, 27.891243)"><g><path d="M 1.359375 -0.71875 C 1.359375 -0.488281 1.289062 -0.3125 1.15625 -0.1875 C 1.019531 -0.0625 0.828125 0 0.578125 0 L 0.171875 0 L 0.171875 -1.421875 L 0.625 -1.421875 C 0.851562 -1.421875 1.03125 -1.359375 1.15625 -1.234375 C 1.289062 -1.109375 1.359375 -0.9375 1.359375 -0.71875 Z M 1.046875 -0.71875 C 1.046875 -1.019531 0.910156 -1.171875 0.640625 -1.171875 L 0.484375 -1.171875 L 0.484375 -0.25 L 0.609375 -0.25 C 0.898438 -0.25 1.046875 -0.40625 1.046875 -0.71875 Z M 1.046875 -0.71875 "/></g></g></g><g fill="#FFFFFF" fill-opacity="1"><g transform="translate(30.599096, 27.891243)"><g><path d="M 1 0 L 0.171875 0 L 0.171875 -1.421875 L 1 -1.421875 L 1 -1.171875 L 0.484375 -1.171875 L 0.484375 -0.859375 L 0.953125 -0.859375 L 0.953125 -0.609375 L 0.484375 -0.609375 L 0.484375 -0.25 L 1 -0.25 Z M 1 0 "/></g></g></g><g fill="#FFFFFF" fill-opacity="1"><g transform="translate(31.706633, 27.891243)"><g><path d="M 0.484375 -0.78125 L 0.578125 -0.78125 C 0.671875 -0.78125 0.738281 -0.796875 0.78125 -0.828125 C 0.832031 -0.859375 0.859375 -0.910156 0.859375 -0.984375 C 0.859375 -1.046875 0.832031 -1.09375 0.78125 -1.125 C 0.738281 -1.15625 0.664062 -1.171875 0.5625 -1.171875 L 0.484375 -1.171875 Z M 0.484375 -0.546875 L 0.484375 0 L 0.171875 0 L 0.171875 -1.421875 L 0.59375 -1.421875 C 0.78125 -1.421875 0.921875 -1.382812 1.015625 -1.3125 C 1.109375 -1.238281 1.15625 -1.132812 1.15625 -1 C 1.15625 -0.914062 1.128906 -0.835938 1.078125 -0.765625 C 1.035156 -0.703125 0.972656 -0.65625 0.890625 -0.625 C 1.109375 -0.300781 1.25 -0.09375 1.3125 0 L 0.984375 0 L 0.640625 -0.546875 Z M 0.484375 -0.546875 "/></g></g></g><g fill="#FFFFFF" fill-opacity="1"><g transform="translate(33.012118, 27.891243)"><g><path d="M 1.015625 -0.390625 C 1.015625 -0.265625 0.96875 -0.164062 0.875 -0.09375 C 0.78125 -0.0195312 0.65625 0.015625 0.5 0.015625 C 0.34375 0.015625 0.207031 -0.0078125 0.09375 -0.0625 L 0.09375 -0.34375 C 0.1875 -0.300781 0.265625 -0.269531 0.328125 -0.25 C 0.398438 -0.238281 0.460938 -0.234375 0.515625 -0.234375 C 0.578125 -0.234375 0.625 -0.242188 0.65625 -0.265625 C 0.695312 -0.285156 0.71875 -0.320312 0.71875 -0.375 C 0.71875 -0.40625 0.707031 -0.429688 0.6875 -0.453125 C 0.675781 -0.472656 0.65625 -0.492188 0.625 -0.515625 C 0.59375 -0.535156 0.53125 -0.566406 0.4375 -0.609375 C 0.351562 -0.648438 0.289062 -0.6875 0.25 -0.71875 C 0.207031 -0.757812 0.171875 -0.804688 0.140625 -0.859375 C 0.117188 -0.910156 0.109375 -0.96875 0.109375 -1.03125 C 0.109375 -1.15625 0.148438 -1.253906 0.234375 -1.328125 C 0.316406 -1.398438 0.4375 -1.4375 0.59375 -1.4375 C 0.664062 -1.4375 0.734375 -1.425781 0.796875 -1.40625 C 0.859375 -1.394531 0.925781 -1.375 1 -1.34375 L 0.90625 -1.109375 C 0.832031 -1.140625 0.769531 -1.160156 0.71875 -1.171875 C 0.675781 -1.179688 0.628906 -1.1875 0.578125 -1.1875 C 0.523438 -1.1875 0.484375 -1.171875 0.453125 -1.140625 C 0.421875 -1.117188 0.40625 -1.085938 0.40625 -1.046875 C 0.40625 -1.015625 0.410156 -0.988281 0.421875 -0.96875 C 0.429688 -0.945312 0.445312 -0.925781 0.46875 -0.90625 C 0.5 -0.894531 0.566406 -0.863281 0.671875 -0.8125 C 0.804688 -0.75 0.894531 -0.6875 0.9375 -0.625 C 0.988281 -0.5625 1.015625 -0.484375 1.015625 -0.390625 Z M 1.015625 -0.390625 "/></g></g></g></svg>