<svg xmlns="http://www.w3.org/2000/svg" xmlns:xlink="http://www.w3.org/1999/xlink" width="69" zoomAndPan="magnify" viewBox="0 0 51.75 33.749998" height="45" preserveAspectRatio="xMidYMid meet" version="1.0"><defs><g/><clipPath id="5bcc25a7b8"><path d="M 0.0664062 16 L 8 16 L 8 22 L 0.0664062 22 Z M 0.0664062 16 " clip-rule="nonzero"/></clipPath><clipPath id="70878221cf"><path d="M 0.0664062 9 L 3 9 L 3 13 L 0.0664062 13 Z M 0.0664062 9 " clip-rule="nonzero"/></clipPath><clipPath id="f2bb1f183e"><path d="M 27.175781 7.699219 L 33.089844 7.699219 L 33.089844 14.445312 L 27.175781 14.445312 Z M 27.175781 7.699219 " clip-rule="nonzero"/></clipPath><clipPath id="ca0451c9ef"><path d="M 35.570312 7.699219 L 41.691406 7.699219 L 41.691406 14.445312 L 35.570312 14.445312 Z M 35.570312 7.699219 " clip-rule="nonzero"/></clipPath></defs><g clip-path="url(#5bcc25a7b8)"><g fill="#FFFFFF" fill-opacity="1"><g transform="translate(0.066178, 21.747948)"><g><path d="M 4.671875 0 L 3.78125 -3.125 L 2.890625 0 L 1.484375 0 L -0.09375 -5.5625 L 1.3125 -5.5625 L 2.265625 -1.75 L 2.296875 -1.75 L 3.3125 -5.5625 L 4.265625 -5.5625 L 5.28125 -1.75 L 5.3125 -1.75 L 6.265625 -5.5625 L 7.671875 -5.5625 L 6.078125 0 Z M 4.671875 0 "/></g></g></g></g><g fill="#FFFFFF" fill-opacity="1"><g transform="translate(8.301736, 21.747948)"><g><path d="M 3.59375 -5.5625 L 3.59375 -4.453125 L 1.671875 -4.453125 L 1.671875 -3.34375 L 3.515625 -3.34375 L 3.515625 -2.234375 L 1.671875 -2.234375 L 1.671875 -1.109375 L 3.59375 -1.109375 L 3.59375 0 L 0.40625 0 L 0.40625 -5.5625 Z M 3.59375 -5.5625 "/></g></g></g><g fill="#FFFFFF" fill-opacity="1"><g transform="translate(12.888286, 21.747948)"><g><path d="M 0.40625 -5.5625 L 2.140625 -5.5625 C 2.660156 -5.5625 3.070312 -5.453125 3.375 -5.234375 C 3.6875 -5.015625 3.84375 -4.65625 3.84375 -4.15625 C 3.84375 -3.59375 3.613281 -3.191406 3.15625 -2.953125 C 3.945312 -2.816406 4.34375 -2.347656 4.34375 -1.546875 C 4.34375 -1.078125 4.179688 -0.703125 3.859375 -0.421875 C 3.535156 -0.140625 3.085938 0 2.515625 0 L 0.40625 0 Z M 1.671875 -3.390625 L 1.78125 -3.390625 C 2.0625 -3.390625 2.269531 -3.4375 2.40625 -3.53125 C 2.550781 -3.632812 2.625 -3.796875 2.625 -4.015625 C 2.625 -4.398438 2.34375 -4.59375 1.78125 -4.59375 L 1.671875 -4.59375 Z M 1.671875 -0.984375 L 2.078125 -0.984375 C 2.691406 -0.984375 3 -1.1875 3 -1.59375 C 3 -1.84375 2.921875 -2.019531 2.765625 -2.125 C 2.609375 -2.238281 2.378906 -2.296875 2.078125 -2.296875 L 1.671875 -2.296875 Z M 1.671875 -0.984375 "/></g></g></g><g fill="#FFFFFF" fill-opacity="1"><g transform="translate(18.054901, 21.747948)"><g/></g></g><g fill="#FFFFFF" fill-opacity="1"><g transform="translate(20.570758, 21.747948)"><g><path d="M 0.40625 -5.5625 L 2.015625 -5.5625 C 2.785156 -5.5625 3.445312 -5.296875 4 -4.765625 C 4.550781 -4.242188 4.828125 -3.582031 4.828125 -2.78125 C 4.828125 -1.988281 4.550781 -1.328125 4 -0.796875 C 3.457031 -0.265625 2.796875 0 2.015625 0 L 0.40625 0 Z M 1.671875 -1.140625 L 1.875 -1.140625 C 2.332031 -1.140625 2.707031 -1.296875 3 -1.609375 C 3.300781 -1.921875 3.453125 -2.3125 3.453125 -2.78125 C 3.453125 -3.25 3.304688 -3.640625 3.015625 -3.953125 C 2.722656 -4.273438 2.34375 -4.4375 1.875 -4.4375 L 1.671875 -4.4375 Z M 1.671875 -1.140625 "/></g></g></g><g fill="#FFFFFF" fill-opacity="1"><g transform="translate(26.223008, 21.747948)"><g><path d="M 3.59375 -5.5625 L 3.59375 -4.453125 L 1.671875 -4.453125 L 1.671875 -3.34375 L 3.515625 -3.34375 L 3.515625 -2.234375 L 1.671875 -2.234375 L 1.671875 -1.109375 L 3.59375 -1.109375 L 3.59375 0 L 0.40625 0 L 0.40625 -5.5625 Z M 3.59375 -5.5625 "/></g></g></g><g fill="#FFFFFF" fill-opacity="1"><g transform="translate(30.809557, 21.747948)"><g><path d="M 2.453125 -5.671875 C 2.753906 -5.671875 3.046875 -5.625 3.328125 -5.53125 C 3.617188 -5.445312 3.835938 -5.363281 3.984375 -5.28125 L 4.1875 -5.140625 L 3.671875 -4.125 C 3.628906 -4.15625 3.570312 -4.191406 3.5 -4.234375 C 3.425781 -4.273438 3.289062 -4.332031 3.09375 -4.40625 C 2.894531 -4.476562 2.710938 -4.515625 2.546875 -4.515625 C 2.335938 -4.515625 2.175781 -4.46875 2.0625 -4.375 C 1.945312 -4.289062 1.890625 -4.171875 1.890625 -4.015625 C 1.890625 -3.941406 1.914062 -3.867188 1.96875 -3.796875 C 2.019531 -3.734375 2.109375 -3.664062 2.234375 -3.59375 C 2.367188 -3.519531 2.484375 -3.457031 2.578125 -3.40625 C 2.679688 -3.363281 2.835938 -3.300781 3.046875 -3.21875 C 3.398438 -3.0625 3.703125 -2.847656 3.953125 -2.578125 C 4.210938 -2.316406 4.34375 -2.019531 4.34375 -1.6875 C 4.34375 -1.375 4.285156 -1.097656 4.171875 -0.859375 C 4.054688 -0.617188 3.898438 -0.429688 3.703125 -0.296875 C 3.503906 -0.160156 3.28125 -0.0625 3.03125 0 C 2.789062 0.0625 2.53125 0.09375 2.25 0.09375 C 2.007812 0.09375 1.769531 0.0664062 1.53125 0.015625 C 1.300781 -0.0234375 1.101562 -0.0820312 0.9375 -0.15625 C 0.78125 -0.226562 0.640625 -0.300781 0.515625 -0.375 C 0.390625 -0.445312 0.300781 -0.507812 0.25 -0.5625 L 0.15625 -0.640625 L 0.796875 -1.703125 C 0.847656 -1.660156 0.921875 -1.601562 1.015625 -1.53125 C 1.109375 -1.457031 1.273438 -1.363281 1.515625 -1.25 C 1.753906 -1.132812 1.96875 -1.078125 2.15625 -1.078125 C 2.6875 -1.078125 2.953125 -1.257812 2.953125 -1.625 C 2.953125 -1.695312 2.929688 -1.765625 2.890625 -1.828125 C 2.859375 -1.898438 2.789062 -1.96875 2.6875 -2.03125 C 2.59375 -2.09375 2.507812 -2.140625 2.4375 -2.171875 C 2.363281 -2.210938 2.242188 -2.273438 2.078125 -2.359375 C 1.910156 -2.441406 1.785156 -2.5 1.703125 -2.53125 C 1.359375 -2.695312 1.09375 -2.90625 0.90625 -3.15625 C 0.726562 -3.40625 0.640625 -3.675781 0.640625 -3.96875 C 0.640625 -4.46875 0.820312 -4.875 1.1875 -5.1875 C 1.5625 -5.507812 1.984375 -5.671875 2.453125 -5.671875 Z M 2.453125 -5.671875 "/></g></g></g><g fill="#FFFFFF" fill-opacity="1"><g transform="translate(36.016643, 21.747948)"><g><path d="M 1.671875 -5.5625 L 1.671875 0 L 0.40625 0 L 0.40625 -5.5625 Z M 1.671875 -5.5625 "/></g></g></g><g fill="#FFFFFF" fill-opacity="1"><g transform="translate(38.768574, 21.747948)"><g><path d="M 5.4375 -3.125 L 5.4375 -1.90625 C 5.289062 -1.25 4.972656 -0.75 4.484375 -0.40625 C 4.003906 -0.0703125 3.46875 0.09375 2.875 0.09375 C 2.113281 0.09375 1.46875 -0.1875 0.9375 -0.75 C 0.414062 -1.3125 0.15625 -1.988281 0.15625 -2.78125 C 0.15625 -3.59375 0.410156 -4.273438 0.921875 -4.828125 C 1.441406 -5.390625 2.09375 -5.671875 2.875 -5.671875 C 3.769531 -5.671875 4.484375 -5.351562 5.015625 -4.71875 L 4.1875 -3.8125 C 3.882812 -4.28125 3.46875 -4.515625 2.9375 -4.515625 C 2.550781 -4.515625 2.21875 -4.34375 1.9375 -4 C 1.664062 -3.664062 1.53125 -3.257812 1.53125 -2.78125 C 1.53125 -2.3125 1.664062 -1.90625 1.9375 -1.5625 C 2.21875 -1.226562 2.550781 -1.0625 2.9375 -1.0625 C 3.257812 -1.0625 3.539062 -1.160156 3.78125 -1.359375 C 4.03125 -1.554688 4.15625 -1.816406 4.15625 -2.140625 L 2.875 -2.140625 L 2.875 -3.125 Z M 5.4375 -3.125 "/></g></g></g><g fill="#FFFFFF" fill-opacity="1"><g transform="translate(45.034611, 21.747948)"><g><path d="M 1.671875 -3.453125 L 1.671875 0 L 0.40625 0 L 0.40625 -5.5625 L 1.671875 -5.5625 L 3.890625 -2.109375 L 3.90625 -2.109375 L 3.90625 -5.5625 L 5.171875 -5.5625 L 5.171875 0 L 3.90625 0 L 1.6875 -3.453125 Z M 1.671875 -3.453125 "/></g></g></g><g clip-path="url(#70878221cf)"><g fill="#FFFFFF" fill-opacity="1"><g transform="translate(0.066178, 12.634134)"><g><path d="M 1.21875 -0.96875 L 0.78125 -0.96875 L 0.78125 0 L 0.234375 0 L 0.234375 -2.65625 L 1.21875 -2.65625 C 1.53125 -2.65625 1.769531 -2.582031 1.9375 -2.4375 C 2.113281 -2.300781 2.203125 -2.109375 2.203125 -1.859375 C 2.203125 -1.671875 2.160156 -1.515625 2.078125 -1.390625 C 2.003906 -1.273438 1.890625 -1.179688 1.734375 -1.109375 L 2.3125 -0.03125 L 2.3125 0 L 1.71875 0 Z M 0.78125 -1.421875 L 1.21875 -1.421875 C 1.363281 -1.421875 1.472656 -1.453125 1.546875 -1.515625 C 1.617188 -1.585938 1.65625 -1.6875 1.65625 -1.8125 C 1.65625 -1.9375 1.617188 -2.035156 1.546875 -2.109375 C 1.472656 -2.179688 1.363281 -2.21875 1.21875 -2.21875 L 0.78125 -2.21875 Z M 0.78125 -1.421875 "/></g></g></g></g><g fill="#FFFFFF" fill-opacity="1"><g transform="translate(2.823773, 12.634134)"><g><path d="M 1.828125 -1.15625 L 0.78125 -1.15625 L 0.78125 -0.4375 L 2.015625 -0.4375 L 2.015625 0 L 0.234375 0 L 0.234375 -2.65625 L 2.015625 -2.65625 L 2.015625 -2.21875 L 0.78125 -2.21875 L 0.78125 -1.578125 L 1.828125 -1.578125 Z M 1.828125 -1.15625 "/></g></g></g><g fill="#FFFFFF" fill-opacity="1"><g transform="translate(5.298641, 12.634134)"><g><path d="M 1.609375 -0.703125 C 1.609375 -0.796875 1.570312 -0.867188 1.5 -0.921875 C 1.425781 -0.984375 1.296875 -1.046875 1.109375 -1.109375 C 0.921875 -1.171875 0.769531 -1.234375 0.65625 -1.296875 C 0.351562 -1.453125 0.203125 -1.671875 0.203125 -1.953125 C 0.203125 -2.097656 0.242188 -2.222656 0.328125 -2.328125 C 0.410156 -2.441406 0.523438 -2.53125 0.671875 -2.59375 C 0.828125 -2.65625 1 -2.6875 1.1875 -2.6875 C 1.375 -2.6875 1.539062 -2.648438 1.6875 -2.578125 C 1.84375 -2.515625 1.957031 -2.421875 2.03125 -2.296875 C 2.113281 -2.171875 2.15625 -2.03125 2.15625 -1.875 L 1.609375 -1.875 C 1.609375 -1.988281 1.570312 -2.078125 1.5 -2.140625 C 1.425781 -2.210938 1.316406 -2.25 1.171875 -2.25 C 1.046875 -2.25 0.941406 -2.222656 0.859375 -2.171875 C 0.785156 -2.117188 0.75 -2.046875 0.75 -1.953125 C 0.75 -1.859375 0.789062 -1.78125 0.875 -1.71875 C 0.96875 -1.664062 1.097656 -1.613281 1.265625 -1.5625 C 1.578125 -1.46875 1.800781 -1.351562 1.9375 -1.21875 C 2.082031 -1.082031 2.15625 -0.910156 2.15625 -0.703125 C 2.15625 -0.472656 2.066406 -0.289062 1.890625 -0.15625 C 1.722656 -0.03125 1.492188 0.03125 1.203125 0.03125 C 0.992188 0.03125 0.804688 -0.00390625 0.640625 -0.078125 C 0.472656 -0.148438 0.34375 -0.25 0.25 -0.375 C 0.164062 -0.507812 0.125 -0.660156 0.125 -0.828125 L 0.671875 -0.828125 C 0.671875 -0.535156 0.847656 -0.390625 1.203125 -0.390625 C 1.328125 -0.390625 1.425781 -0.414062 1.5 -0.46875 C 1.570312 -0.519531 1.609375 -0.597656 1.609375 -0.703125 Z M 1.609375 -0.703125 "/></g></g></g><g fill="#FFFFFF" fill-opacity="1"><g transform="translate(7.968682, 12.634134)"><g><path d="M 0.78125 -0.9375 L 0.78125 0 L 0.234375 0 L 0.234375 -2.65625 L 1.265625 -2.65625 C 1.472656 -2.65625 1.648438 -2.617188 1.796875 -2.546875 C 1.953125 -2.472656 2.066406 -2.367188 2.140625 -2.234375 C 2.222656 -2.097656 2.265625 -1.945312 2.265625 -1.78125 C 2.265625 -1.519531 2.175781 -1.3125 2 -1.15625 C 1.820312 -1.007812 1.578125 -0.9375 1.265625 -0.9375 Z M 0.78125 -1.375 L 1.265625 -1.375 C 1.410156 -1.375 1.519531 -1.40625 1.59375 -1.46875 C 1.675781 -1.539062 1.71875 -1.640625 1.71875 -1.765625 C 1.71875 -1.898438 1.675781 -2.003906 1.59375 -2.078125 C 1.519531 -2.160156 1.414062 -2.207031 1.28125 -2.21875 L 0.78125 -2.21875 Z M 0.78125 -1.375 "/></g></g></g><g fill="#FFFFFF" fill-opacity="1"><g transform="translate(10.751814, 12.634134)"><g><path d="M 2.421875 -1.265625 C 2.421875 -1.003906 2.375 -0.773438 2.28125 -0.578125 C 2.1875 -0.378906 2.050781 -0.226562 1.875 -0.125 C 1.707031 -0.0195312 1.515625 0.03125 1.296875 0.03125 C 1.078125 0.03125 0.878906 -0.0195312 0.703125 -0.125 C 0.523438 -0.226562 0.390625 -0.378906 0.296875 -0.578125 C 0.203125 -0.773438 0.15625 -1 0.15625 -1.25 L 0.15625 -1.390625 C 0.15625 -1.648438 0.203125 -1.878906 0.296875 -2.078125 C 0.390625 -2.273438 0.519531 -2.425781 0.6875 -2.53125 C 0.863281 -2.632812 1.0625 -2.6875 1.28125 -2.6875 C 1.507812 -2.6875 1.707031 -2.632812 1.875 -2.53125 C 2.050781 -2.425781 2.1875 -2.273438 2.28125 -2.078125 C 2.375 -1.878906 2.421875 -1.648438 2.421875 -1.390625 Z M 1.859375 -1.390625 C 1.859375 -1.671875 1.804688 -1.878906 1.703125 -2.015625 C 1.609375 -2.160156 1.46875 -2.234375 1.28125 -2.234375 C 1.101562 -2.234375 0.960938 -2.160156 0.859375 -2.015625 C 0.765625 -1.878906 0.71875 -1.671875 0.71875 -1.390625 L 0.71875 -1.265625 C 0.71875 -0.992188 0.765625 -0.78125 0.859375 -0.625 C 0.960938 -0.476562 1.109375 -0.40625 1.296875 -0.40625 C 1.472656 -0.40625 1.609375 -0.476562 1.703125 -0.625 C 1.804688 -0.769531 1.859375 -0.984375 1.859375 -1.265625 Z M 1.859375 -1.390625 "/></g></g></g><g fill="#FFFFFF" fill-opacity="1"><g transform="translate(13.704582, 12.634134)"><g><path d="M 2.390625 0 L 1.84375 0 L 0.78125 -1.75 L 0.78125 0 L 0.234375 0 L 0.234375 -2.65625 L 0.78125 -2.65625 L 1.84375 -0.90625 L 1.84375 -2.65625 L 2.390625 -2.65625 Z M 2.390625 0 "/></g></g></g><g fill="#FFFFFF" fill-opacity="1"><g transform="translate(16.715721, 12.634134)"><g><path d="M 1.609375 -0.703125 C 1.609375 -0.796875 1.570312 -0.867188 1.5 -0.921875 C 1.425781 -0.984375 1.296875 -1.046875 1.109375 -1.109375 C 0.921875 -1.171875 0.769531 -1.234375 0.65625 -1.296875 C 0.351562 -1.453125 0.203125 -1.671875 0.203125 -1.953125 C 0.203125 -2.097656 0.242188 -2.222656 0.328125 -2.328125 C 0.410156 -2.441406 0.523438 -2.53125 0.671875 -2.59375 C 0.828125 -2.65625 1 -2.6875 1.1875 -2.6875 C 1.375 -2.6875 1.539062 -2.648438 1.6875 -2.578125 C 1.84375 -2.515625 1.957031 -2.421875 2.03125 -2.296875 C 2.113281 -2.171875 2.15625 -2.03125 2.15625 -1.875 L 1.609375 -1.875 C 1.609375 -1.988281 1.570312 -2.078125 1.5 -2.140625 C 1.425781 -2.210938 1.316406 -2.25 1.171875 -2.25 C 1.046875 -2.25 0.941406 -2.222656 0.859375 -2.171875 C 0.785156 -2.117188 0.75 -2.046875 0.75 -1.953125 C 0.75 -1.859375 0.789062 -1.78125 0.875 -1.71875 C 0.96875 -1.664062 1.097656 -1.613281 1.265625 -1.5625 C 1.578125 -1.46875 1.800781 -1.351562 1.9375 -1.21875 C 2.082031 -1.082031 2.15625 -0.910156 2.15625 -0.703125 C 2.15625 -0.472656 2.066406 -0.289062 1.890625 -0.15625 C 1.722656 -0.03125 1.492188 0.03125 1.203125 0.03125 C 0.992188 0.03125 0.804688 -0.00390625 0.640625 -0.078125 C 0.472656 -0.148438 0.34375 -0.25 0.25 -0.375 C 0.164062 -0.507812 0.125 -0.660156 0.125 -0.828125 L 0.671875 -0.828125 C 0.671875 -0.535156 0.847656 -0.390625 1.203125 -0.390625 C 1.328125 -0.390625 1.425781 -0.414062 1.5 -0.46875 C 1.570312 -0.519531 1.609375 -0.597656 1.609375 -0.703125 Z M 1.609375 -0.703125 "/></g></g></g><g fill="#FFFFFF" fill-opacity="1"><g transform="translate(19.385762, 12.634134)"><g><path d="M 0.8125 0 L 0.265625 0 L 0.265625 -2.65625 L 0.8125 -2.65625 Z M 0.8125 0 "/></g></g></g><g fill="#FFFFFF" fill-opacity="1"><g transform="translate(20.848284, 12.634134)"><g><path d="M 1.21875 -0.65625 L 1.8125 -2.65625 L 2.421875 -2.65625 L 1.5 0 L 0.9375 0 L 0.015625 -2.65625 L 0.625 -2.65625 Z M 1.21875 -0.65625 "/></g></g></g><g fill="#FFFFFF" fill-opacity="1"><g transform="translate(23.66425, 12.634134)"><g><path d="M 1.828125 -1.15625 L 0.78125 -1.15625 L 0.78125 -0.4375 L 2.015625 -0.4375 L 2.015625 0 L 0.234375 0 L 0.234375 -2.65625 L 2.015625 -2.65625 L 2.015625 -2.21875 L 0.78125 -2.21875 L 0.78125 -1.578125 L 1.828125 -1.578125 Z M 1.828125 -1.15625 "/></g></g></g><g clip-path="url(#f2bb1f183e)"><path fill="#e44d26" d="M 27.710938 13.753906 L 27.171875 7.71875 L 33.089844 7.71875 L 32.550781 13.753906 L 30.128906 14.425781 Z M 27.710938 13.753906 " fill-opacity="1" fill-rule="nonzero"/></g><path fill="#f16529" d="M 32.089844 13.371094 L 32.550781 8.210938 L 30.132812 8.210938 L 30.132812 13.914062 Z M 32.089844 13.371094 " fill-opacity="1" fill-rule="nonzero"/><path fill="#ebebeb" d="M 30.128906 8.953125 L 28.273438 8.953125 L 28.472656 11.191406 L 30.132812 11.191406 L 30.132812 10.449219 L 29.152344 10.449219 L 29.085938 9.691406 L 30.132812 9.691406 L 30.132812 8.953125 Z M 30.132812 12.371094 L 30.128906 12.371094 L 29.304688 12.148438 L 29.25 11.558594 L 28.507812 11.558594 L 28.609375 12.722656 L 30.128906 13.140625 L 30.132812 13.140625 Z M 30.132812 12.371094 " fill-opacity="1" fill-rule="nonzero"/><path fill="#ffffff" d="M 30.128906 11.191406 L 31.042969 11.191406 L 30.957031 12.152344 L 30.132812 12.375 L 30.132812 13.144531 L 31.652344 12.722656 L 31.855469 10.449219 L 30.132812 10.449219 Z M 31.96875 9.152344 L 31.984375 8.953125 L 30.128906 8.953125 L 30.128906 9.691406 L 31.917969 9.691406 L 31.933594 9.527344 Z M 31.96875 9.152344 " fill-opacity="1" fill-rule="nonzero"/><g clip-path="url(#ca0451c9ef)"><path fill="#2196f3" d="M 41.652344 7.746094 C 41.625 7.714844 41.589844 7.699219 41.550781 7.699219 L 35.710938 7.699219 C 35.609375 7.699219 35.5625 7.75 35.574219 7.855469 L 36.128906 13.476562 C 36.132812 13.535156 36.167969 13.574219 36.222656 13.59375 L 38.726562 14.4375 C 38.738281 14.441406 38.753906 14.445312 38.769531 14.445312 C 38.785156 14.445312 38.804688 14.441406 38.820312 14.433594 L 41.042969 13.59375 C 41.097656 13.570312 41.128906 13.53125 41.132812 13.476562 L 41.691406 7.855469 C 41.695312 7.8125 41.683594 7.777344 41.652344 7.746094 Z M 41.652344 7.746094 " fill-opacity="1" fill-rule="nonzero"/></g><path fill="#fafafa" d="M 38.769531 13.039062 C 38.753906 13.039062 38.742188 13.035156 38.726562 13.03125 L 37.476562 12.609375 C 37.425781 12.59375 37.394531 12.558594 37.382812 12.503906 L 37.242188 11.800781 C 37.226562 11.710938 37.261719 11.65625 37.351562 11.636719 C 37.441406 11.617188 37.496094 11.65625 37.515625 11.746094 L 37.640625 12.367188 L 38.765625 12.75 L 39.757812 12.375 L 40.273438 9.386719 L 37.101562 9.386719 C 37.007812 9.386719 36.964844 9.339844 36.964844 9.246094 C 36.964844 9.152344 37.007812 9.105469 37.101562 9.105469 L 40.4375 9.105469 C 40.546875 9.105469 40.59375 9.160156 40.574219 9.269531 L 40.019531 12.5 C 40.011719 12.554688 39.980469 12.589844 39.929688 12.609375 L 38.820312 13.03125 C 38.804688 13.035156 38.785156 13.039062 38.769531 13.039062 Z M 38.769531 13.039062 " fill-opacity="1" fill-rule="nonzero"/><path fill="#fafafa" d="M 40.160156 10.789062 L 37.242188 10.789062 C 37.148438 10.789062 37.101562 10.742188 37.101562 10.648438 C 37.101562 10.558594 37.148438 10.511719 37.242188 10.511719 L 40.160156 10.511719 C 40.253906 10.511719 40.300781 10.558594 40.300781 10.648438 C 40.300781 10.742188 40.253906 10.789062 40.160156 10.789062 Z M 40.160156 10.789062 " fill-opacity="1" fill-rule="nonzero"/><g fill="#FFFFFF" fill-opacity="1"><g transform="translate(19.027286, 25.256429)"><g><path d="M 1.34375 0 L 1.046875 0 L 1.046875 -0.609375 L 0.484375 -0.609375 L 0.484375 0 L 0.171875 0 L 0.171875 -1.421875 L 0.484375 -1.421875 L 0.484375 -0.859375 L 1.046875 -0.859375 L 1.046875 -1.421875 L 1.34375 -1.421875 Z M 1.34375 0 "/></g></g></g><g fill="#FFFFFF" fill-opacity="1"><g transform="translate(20.540374, 25.256429)"><g><path d="M 1.046875 0 L 0.9375 -0.34375 L 0.421875 -0.34375 L 0.328125 0 L 0 0 L 0.5 -1.421875 L 0.875 -1.421875 L 1.375 0 Z M 0.875 -0.59375 C 0.78125 -0.894531 0.722656 -1.066406 0.703125 -1.109375 C 0.691406 -1.148438 0.6875 -1.179688 0.6875 -1.203125 C 0.664062 -1.117188 0.601562 -0.914062 0.5 -0.59375 Z M 0.875 -0.59375 "/></g></g></g><g fill="#FFFFFF" fill-opacity="1"><g transform="translate(21.90476, 25.256429)"><g><path d="M 0.484375 -0.78125 L 0.578125 -0.78125 C 0.671875 -0.78125 0.738281 -0.796875 0.78125 -0.828125 C 0.832031 -0.859375 0.859375 -0.910156 0.859375 -0.984375 C 0.859375 -1.046875 0.832031 -1.09375 0.78125 -1.125 C 0.738281 -1.15625 0.664062 -1.171875 0.5625 -1.171875 L 0.484375 -1.171875 Z M 0.484375 -0.546875 L 0.484375 0 L 0.171875 0 L 0.171875 -1.421875 L 0.59375 -1.421875 C 0.78125 -1.421875 0.921875 -1.382812 1.015625 -1.3125 C 1.109375 -1.238281 1.15625 -1.132812 1.15625 -1 C 1.15625 -0.914062 1.128906 -0.835938 1.078125 -0.765625 C 1.035156 -0.703125 0.972656 -0.65625 0.890625 -0.625 C 1.109375 -0.300781 1.25 -0.09375 1.3125 0 L 0.984375 0 L 0.640625 -0.546875 Z M 0.484375 -0.546875 "/></g></g></g><g fill="#FFFFFF" fill-opacity="1"><g transform="translate(23.210244, 25.256429)"><g><path d="M 1.359375 -0.71875 C 1.359375 -0.488281 1.289062 -0.3125 1.15625 -0.1875 C 1.019531 -0.0625 0.828125 0 0.578125 0 L 0.171875 0 L 0.171875 -1.421875 L 0.625 -1.421875 C 0.851562 -1.421875 1.03125 -1.359375 1.15625 -1.234375 C 1.289062 -1.109375 1.359375 -0.9375 1.359375 -0.71875 Z M 1.046875 -0.71875 C 1.046875 -1.019531 0.910156 -1.171875 0.640625 -1.171875 L 0.484375 -1.171875 L 0.484375 -0.25 L 0.609375 -0.25 C 0.898438 -0.25 1.046875 -0.40625 1.046875 -0.71875 Z M 1.046875 -0.71875 "/></g></g></g><g fill="#FFFFFF" fill-opacity="1"><g transform="translate(24.674086, 25.256429)"><g><path d="M 0.78125 -1.1875 C 0.664062 -1.1875 0.578125 -1.144531 0.515625 -1.0625 C 0.453125 -0.976562 0.421875 -0.859375 0.421875 -0.703125 C 0.421875 -0.390625 0.539062 -0.234375 0.78125 -0.234375 C 0.875 -0.234375 0.992188 -0.257812 1.140625 -0.3125 L 1.140625 -0.046875 C 1.023438 -0.00390625 0.894531 0.015625 0.75 0.015625 C 0.539062 0.015625 0.378906 -0.046875 0.265625 -0.171875 C 0.160156 -0.296875 0.109375 -0.472656 0.109375 -0.703125 C 0.109375 -0.847656 0.132812 -0.976562 0.1875 -1.09375 C 0.25 -1.207031 0.328125 -1.289062 0.421875 -1.34375 C 0.523438 -1.40625 0.644531 -1.4375 0.78125 -1.4375 C 0.914062 -1.4375 1.050781 -1.40625 1.1875 -1.34375 L 1.09375 -1.09375 C 1.039062 -1.113281 0.988281 -1.132812 0.9375 -1.15625 C 0.882812 -1.175781 0.832031 -1.1875 0.78125 -1.1875 Z M 0.78125 -1.1875 "/></g></g></g><g fill="#FFFFFF" fill-opacity="1"><g transform="translate(25.934188, 25.256429)"><g><path d="M 1.46875 -0.703125 C 1.46875 -0.472656 1.40625 -0.296875 1.28125 -0.171875 C 1.164062 -0.046875 1.003906 0.015625 0.796875 0.015625 C 0.578125 0.015625 0.40625 -0.046875 0.28125 -0.171875 C 0.164062 -0.296875 0.109375 -0.476562 0.109375 -0.71875 C 0.109375 -0.945312 0.164062 -1.125 0.28125 -1.25 C 0.40625 -1.375 0.578125 -1.4375 0.796875 -1.4375 C 1.015625 -1.4375 1.179688 -1.375 1.296875 -1.25 C 1.410156 -1.125 1.46875 -0.941406 1.46875 -0.703125 Z M 0.4375 -0.703125 C 0.4375 -0.546875 0.460938 -0.425781 0.515625 -0.34375 C 0.578125 -0.269531 0.671875 -0.234375 0.796875 -0.234375 C 1.035156 -0.234375 1.15625 -0.390625 1.15625 -0.703125 C 1.15625 -1.023438 1.035156 -1.1875 0.796875 -1.1875 C 0.671875 -1.1875 0.578125 -1.144531 0.515625 -1.0625 C 0.460938 -0.988281 0.4375 -0.867188 0.4375 -0.703125 Z M 0.4375 -0.703125 "/></g></g></g><g fill="#FFFFFF" fill-opacity="1"><g transform="translate(27.508108, 25.256429)"><g><path d="M 1.359375 -0.71875 C 1.359375 -0.488281 1.289062 -0.3125 1.15625 -0.1875 C 1.019531 -0.0625 0.828125 0 0.578125 0 L 0.171875 0 L 0.171875 -1.421875 L 0.625 -1.421875 C 0.851562 -1.421875 1.03125 -1.359375 1.15625 -1.234375 C 1.289062 -1.109375 1.359375 -0.9375 1.359375 -0.71875 Z M 1.046875 -0.71875 C 1.046875 -1.019531 0.910156 -1.171875 0.640625 -1.171875 L 0.484375 -1.171875 L 0.484375 -0.25 L 0.609375 -0.25 C 0.898438 -0.25 1.046875 -0.40625 1.046875 -0.71875 Z M 1.046875 -0.71875 "/></g></g></g><g fill="#FFFFFF" fill-opacity="1"><g transform="translate(28.97195, 25.256429)"><g><path d="M 1 0 L 0.171875 0 L 0.171875 -1.421875 L 1 -1.421875 L 1 -1.171875 L 0.484375 -1.171875 L 0.484375 -0.859375 L 0.953125 -0.859375 L 0.953125 -0.609375 L 0.484375 -0.609375 L 0.484375 -0.25 L 1 -0.25 Z M 1 0 "/></g></g></g><g fill="#FFFFFF" fill-opacity="1"><g transform="translate(30.079488, 25.256429)"><g><path d="M 0.484375 -0.78125 L 0.578125 -0.78125 C 0.671875 -0.78125 0.738281 -0.796875 0.78125 -0.828125 C 0.832031 -0.859375 0.859375 -0.910156 0.859375 -0.984375 C 0.859375 -1.046875 0.832031 -1.09375 0.78125 -1.125 C 0.738281 -1.15625 0.664062 -1.171875 0.5625 -1.171875 L 0.484375 -1.171875 Z M 0.484375 -0.546875 L 0.484375 0 L 0.171875 0 L 0.171875 -1.421875 L 0.59375 -1.421875 C 0.78125 -1.421875 0.921875 -1.382812 1.015625 -1.3125 C 1.109375 -1.238281 1.15625 -1.132812 1.15625 -1 C 1.15625 -0.914062 1.128906 -0.835938 1.078125 -0.765625 C 1.035156 -0.703125 0.972656 -0.65625 0.890625 -0.625 C 1.109375 -0.300781 1.25 -0.09375 1.3125 0 L 0.984375 0 L 0.640625 -0.546875 Z M 0.484375 -0.546875 "/></g></g></g><g fill="#FFFFFF" fill-opacity="1"><g transform="translate(31.384973, 25.256429)"><g><path d="M 1.015625 -0.390625 C 1.015625 -0.265625 0.96875 -0.164062 0.875 -0.09375 C 0.78125 -0.0195312 0.65625 0.015625 0.5 0.015625 C 0.34375 0.015625 0.207031 -0.0078125 0.09375 -0.0625 L 0.09375 -0.34375 C 0.1875 -0.300781 0.265625 -0.269531 0.328125 -0.25 C 0.398438 -0.238281 0.460938 -0.234375 0.515625 -0.234375 C 0.578125 -0.234375 0.625 -0.242188 0.65625 -0.265625 C 0.695312 -0.285156 0.71875 -0.320312 0.71875 -0.375 C 0.71875 -0.40625 0.707031 -0.429688 0.6875 -0.453125 C 0.675781 -0.472656 0.65625 -0.492188 0.625 -0.515625 C 0.59375 -0.535156 0.53125 -0.566406 0.4375 -0.609375 C 0.351562 -0.648438 0.289062 -0.6875 0.25 -0.71875 C 0.207031 -0.757812 0.171875 -0.804688 0.140625 -0.859375 C 0.117188 -0.910156 0.109375 -0.96875 0.109375 -1.03125 C 0.109375 -1.15625 0.148438 -1.253906 0.234375 -1.328125 C 0.316406 -1.398438 0.4375 -1.4375 0.59375 -1.4375 C 0.664062 -1.4375 0.734375 -1.425781 0.796875 -1.40625 C 0.859375 -1.394531 0.925781 -1.375 1 -1.34375 L 0.90625 -1.109375 C 0.832031 -1.140625 0.769531 -1.160156 0.71875 -1.171875 C 0.675781 -1.179688 0.628906 -1.1875 0.578125 -1.1875 C 0.523438 -1.1875 0.484375 -1.171875 0.453125 -1.140625 C 0.421875 -1.117188 0.40625 -1.085938 0.40625 -1.046875 C 0.40625 -1.015625 0.410156 -0.988281 0.421875 -0.96875 C 0.429688 -0.945312 0.445312 -0.925781 0.46875 -0.90625 C 0.5 -0.894531 0.566406 -0.863281 0.671875 -0.8125 C 0.804688 -0.75 0.894531 -0.6875 0.9375 -0.625 C 0.988281 -0.5625 1.015625 -0.484375 1.015625 -0.390625 Z M 1.015625 -0.390625 "/></g></g></g></svg>